<svg id="Layer_1" data-name="Layer 1" xmlns="http://www.w3.org/2000/svg" viewBox="0 0 146.86 51.01"><defs><style>.cls-1{fill:#010101;}</style></defs><path class="cls-1" d="M56.84,27.25a0.47,0.47,0,0,1-.32-0.11,1.39,1.39,0,0,1-.25-0.32l-3.66-6.41a0.13,0.13,0,0,0-.15-0.09,0.13,0.13,0,0,0-.08.14v6.35a0.4,0.4,0,0,1-.43.43h-0.5A0.4,0.4,0,0,1,51,26.82V17.89a0.4,0.4,0,0,1,.43-0.43H52a0.74,0.74,0,0,1,.36.08,0.71,0.71,0,0,1,.26.28l3.5,6.09a0.13,0.13,0,0,0,.14.07,0.11,0.11,0,0,0,.08-0.13v-6a0.4,0.4,0,0,1,.43-0.43h0.5a0.4,0.4,0,0,1,.43.43v8.93a0.4,0.4,0,0,1-.43.43H56.84Zm9.21,0a0.27,0.27,0,0,0,.3-0.4l-2.88-9a0.55,0.55,0,0,0-.19-0.31A0.59,0.59,0,0,0,63,17.46H62a0.59,0.59,0,0,0-.32.08,0.55,0.55,0,0,0-.19.31l-2.88,9a0.27,0.27,0,0,0,.3.4h0.71a0.46,0.46,0,0,0,.49-0.35l0.63-2.1a0.19,0.19,0,0,1,.2-0.14H64a0.19,0.19,0,0,1,.2.14l0.63,2.1a0.46,0.46,0,0,0,.49.35h0.71Zm-2.3-4.06a0.12,0.12,0,0,1-.13.17H61.29a0.12,0.12,0,0,1-.13-0.17l1.15-3.9a0.14,0.14,0,1,1,.29,0Zm5.4,4.06a0.4,0.4,0,0,0,.43-0.43V18.9a0.13,0.13,0,0,1,.14-0.14h2.16a0.4,0.4,0,0,0,.43-0.43V17.89a0.4,0.4,0,0,0-.43-0.43h-6a0.4,0.4,0,0,0-.43.43v0.43a0.4,0.4,0,0,0,.43.43h2.16a0.13,0.13,0,0,1,.14.14v7.92a0.4,0.4,0,0,0,.43.43h0.5Zm5,0a0.4,0.4,0,0,0,.43-0.43V17.89a0.4,0.4,0,0,0-.43-0.43h-0.5a0.4,0.4,0,0,0-.43.43v8.93a0.4,0.4,0,0,0,.43.43h0.5Zm8.64-6.62a3.51,3.51,0,0,0-.25-1.35,3,3,0,0,0-.71-1,3.29,3.29,0,0,0-1.07-.68,3.87,3.87,0,0,0-2.71,0,3.29,3.29,0,0,0-1.07.68,3,3,0,0,0-.71,1A3.51,3.51,0,0,0,76,20.63v3.46a3.51,3.51,0,0,0,.25,1.35,3,3,0,0,0,.71,1,3.3,3.3,0,0,0,1.07.68,3.87,3.87,0,0,0,2.71,0,3.3,3.3,0,0,0,1.07-.68,3,3,0,0,0,.71-1,3.51,3.51,0,0,0,.25-1.35V20.63Zm-1.37,3.46a2.07,2.07,0,0,1-.52,1.44,2.23,2.23,0,0,1-3,0,2.07,2.07,0,0,1-.52-1.44V20.63a2.07,2.07,0,0,1,.52-1.44,2.23,2.23,0,0,1,3,0,2.07,2.07,0,0,1,.52,1.44v3.46Zm9.07,3.17a0.4,0.4,0,0,0,.43-0.43V17.89a0.4,0.4,0,0,0-.43-0.43H90a0.4,0.4,0,0,0-.43.43v6a0.11,0.11,0,0,1-.08.13,0.13,0.13,0,0,1-.14-0.07l-3.5-6.09a0.71,0.71,0,0,0-.26-0.28,0.74,0.74,0,0,0-.36-0.08H84.63a0.4,0.4,0,0,0-.43.43v8.93a0.4,0.4,0,0,0,.43.43h0.5a0.4,0.4,0,0,0,.43-0.43V20.47a0.13,0.13,0,0,1,.08-0.14,0.13,0.13,0,0,1,.15.09l3.66,6.41a1.38,1.38,0,0,0,.25.32,0.47,0.47,0,0,0,.32.11h0.43Zm8.78,0a0.27,0.27,0,0,0,.3-0.4l-2.88-9a0.55,0.55,0,0,0-.19-0.31,0.59,0.59,0,0,0-.32-0.08h-1a0.59,0.59,0,0,0-.32.08,0.55,0.55,0,0,0-.19.31l-2.88,9a0.27,0.27,0,0,0,.3.4h0.71a0.46,0.46,0,0,0,.49-0.35l0.63-2.1a0.19,0.19,0,0,1,.2-0.14h3.14a0.19,0.19,0,0,1,.2.14L98,26.91a0.46,0.46,0,0,0,.49.35h0.71Zm-2.3-4.06a0.12,0.12,0,0,1-.13.17H94.47a0.12,0.12,0,0,1-.13-0.17l1.15-3.9a0.14,0.14,0,1,1,.29,0Zm8.9,4.06a0.4,0.4,0,0,0,.43-0.43V26.39a0.4,0.4,0,0,0-.43-0.43H101.9a0.13,0.13,0,0,1-.14-0.14V17.89a0.4,0.4,0,0,0-.43-0.43h-0.5a0.4,0.4,0,0,0-.43.43v8.93a0.4,0.4,0,0,0,.43.43h5ZM51.94,39a0.4,0.4,0,0,0,.43-0.43V29.67a0.4,0.4,0,0,0-.43-0.43h-0.5a0.4,0.4,0,0,0-.43.43V38.6a0.4,0.4,0,0,0,.43.43h0.5Zm8.28,0a0.4,0.4,0,0,0,.43-0.43V29.67a0.4,0.4,0,0,0-.43-0.43h-0.5a0.4,0.4,0,0,0-.43.43v6a0.11,0.11,0,0,1-.08.13,0.13,0.13,0,0,1-.14-0.07l-3.5-6.09a0.7,0.7,0,0,0-.26-0.28A0.74,0.74,0,0,0,55,29.24H54.39a0.4,0.4,0,0,0-.43.43V38.6a0.4,0.4,0,0,0,.43.43h0.5a0.4,0.4,0,0,0,.43-0.43V32.25a0.13,0.13,0,0,1,.08-0.14,0.13,0.13,0,0,1,.15.09l3.66,6.41a1.38,1.38,0,0,0,.25.32,0.47,0.47,0,0,0,.32.11h0.43Zm8.28,0a0.4,0.4,0,0,0,.43-0.43V29.67a0.4,0.4,0,0,0-.43-0.43H68a0.4,0.4,0,0,0-.43.43v6a0.11,0.11,0,0,1-.08.13,0.13,0.13,0,0,1-.14-0.07l-3.5-6.09a0.71,0.71,0,0,0-.26-0.28,0.74,0.74,0,0,0-.36-0.08H62.67a0.4,0.4,0,0,0-.43.43V38.6a0.4,0.4,0,0,0,.43.43h0.5a0.4,0.4,0,0,0,.43-0.43V32.25a0.13,0.13,0,0,1,.08-0.14,0.13,0.13,0,0,1,.15.09l3.66,6.41a1.38,1.38,0,0,0,.25.32,0.47,0.47,0,0,0,.32.11H68.5Zm8.64-6.62a3.51,3.51,0,0,0-.25-1.35,3,3,0,0,0-.71-1,3.29,3.29,0,0,0-1.07-.68,3.87,3.87,0,0,0-2.71,0,3.29,3.29,0,0,0-1.07.68,3,3,0,0,0-.71,1,3.51,3.51,0,0,0-.25,1.35v3.46a3.51,3.51,0,0,0,.25,1.35,3,3,0,0,0,.71,1,3.3,3.3,0,0,0,1.07.68,3.87,3.87,0,0,0,2.71,0,3.3,3.3,0,0,0,1.07-.68,3,3,0,0,0,.71-1,3.51,3.51,0,0,0,.25-1.35V32.41Zm-1.37,3.46a2.07,2.07,0,0,1-.52,1.44,2.23,2.23,0,0,1-3,0,2.07,2.07,0,0,1-.52-1.44V32.41A2.07,2.07,0,0,1,72.26,31a2.23,2.23,0,0,1,3,0,2.07,2.07,0,0,1,.52,1.44v3.46ZM82.25,39A0.59,0.59,0,0,0,82.58,39a0.55,0.55,0,0,0,.19-0.31l2.88-9a0.27,0.27,0,0,0-.3-0.4h-0.7a0.46,0.46,0,0,0-.49.35L81.89,37.2a0.14,0.14,0,1,1-.29,0l-2.26-7.62a0.46,0.46,0,0,0-.49-0.35H78.15a0.27,0.27,0,0,0-.3.4l2.88,9a0.55,0.55,0,0,0,.19.31,0.59,0.59,0,0,0,.32.08h1ZM92.4,39a0.27,0.27,0,0,0,.3-0.4l-2.88-9a0.55,0.55,0,0,0-.19-0.31,0.59,0.59,0,0,0-.32-0.08h-1a0.59,0.59,0,0,0-.32.08,0.55,0.55,0,0,0-.19.31l-2.88,9a0.27,0.27,0,0,0,.3.4h0.71a0.46,0.46,0,0,0,.49-0.35L87,36.58a0.19,0.19,0,0,1,.2-0.14h3.14a0.19,0.19,0,0,1,.2.14l0.63,2.1a0.46,0.46,0,0,0,.49.35H92.4ZM90.1,35a0.12,0.12,0,0,1-.13.17H87.64A0.12,0.12,0,0,1,87.51,35l1.15-3.9a0.14,0.14,0,1,1,.29,0ZM95.5,39a0.4,0.4,0,0,0,.43-0.43V30.68a0.13,0.13,0,0,1,.14-0.14h2.16a0.4,0.4,0,0,0,.43-0.43V29.67a0.4,0.4,0,0,0-.43-0.43h-6a0.4,0.4,0,0,0-.43.43v0.43a0.4,0.4,0,0,0,.43.43h2.16a0.13,0.13,0,0,1,.14.14V38.6A0.4,0.4,0,0,0,95,39h0.5Zm5,0a0.4,0.4,0,0,0,.43-0.43V29.67a0.4,0.4,0,0,0-.43-0.43H100a0.4,0.4,0,0,0-.43.43V38.6A0.4,0.4,0,0,0,100,39h0.5Zm8.64-6.62a3.51,3.51,0,0,0-.25-1.35,3,3,0,0,0-.71-1,3.29,3.29,0,0,0-1.07-.68,3.87,3.87,0,0,0-2.71,0,3.29,3.29,0,0,0-1.07.68,3,3,0,0,0-.71,1,3.51,3.51,0,0,0-.25,1.35v3.46a3.51,3.51,0,0,0,.25,1.35,3,3,0,0,0,.71,1,3.3,3.3,0,0,0,1.07.68,3.87,3.87,0,0,0,2.71,0,3.3,3.3,0,0,0,1.07-.68,3,3,0,0,0,.71-1,3.51,3.51,0,0,0,.25-1.35V32.41Zm-1.37,3.46a2.07,2.07,0,0,1-.52,1.44,2.23,2.23,0,0,1-3,0,2.07,2.07,0,0,1-.52-1.44V32.41a2.07,2.07,0,0,1,.52-1.44,2.23,2.23,0,0,1,3,0,2.07,2.07,0,0,1,.52,1.44v3.46ZM116.81,39a0.4,0.4,0,0,0,.43-0.43V29.67a0.4,0.4,0,0,0-.43-0.43h-0.5a0.4,0.4,0,0,0-.43.43v6a0.11,0.11,0,0,1-.08.13,0.13,0.13,0,0,1-.14-0.07l-3.5-6.09a0.71,0.71,0,0,0-.26-0.28,0.74,0.74,0,0,0-.36-0.08H111a0.4,0.4,0,0,0-.43.43V38.6A0.4,0.4,0,0,0,111,39h0.5a0.4,0.4,0,0,0,.43-0.43V32.25a0.13,0.13,0,0,1,.08-0.14,0.13,0.13,0,0,1,.15.09l3.66,6.41a1.38,1.38,0,0,0,.25.32,0.47,0.47,0,0,0,.32.11h0.43Zm10.44,0a0.4,0.4,0,0,0,.43-0.43V35a0.13,0.13,0,0,1,.14-0.14h0.86a0.4,0.4,0,0,0,.43-0.43V34a0.4,0.4,0,0,0-.43-0.43h-3.35a1.41,1.41,0,0,1-1-.37,1.35,1.35,0,0,1-.41-1.05,1.49,1.49,0,0,1,.41-1.09,1.33,1.33,0,0,1,1-.42h1.12a0.4,0.4,0,0,0,.43-0.43v-0.5a0.4,0.4,0,0,0-.43-0.43h-1.08a2.72,2.72,0,0,0-1.1.22A2.78,2.78,0,0,0,122.79,31a2.73,2.73,0,0,0-.22,1.09,2.25,2.25,0,0,0,.21,1,2.87,2.87,0,0,0,.5.73,0.21,0.21,0,0,1,.07.15,0.2,0.2,0,0,1-.12.15,2.64,2.64,0,0,0-.87.88,2.58,2.58,0,0,0-.37,1.4,2.68,2.68,0,0,0,.21,1.07,2.64,2.64,0,0,0,.58.84,2.55,2.55,0,0,0,.86.55,3,3,0,0,0,1.09.19h2.52Zm-0.94-1.51a0.13,0.13,0,0,1-.14.14h-1.48a1.3,1.3,0,0,1-1-.37,1.33,1.33,0,0,1-.37-1,1.49,1.49,0,0,1,.37-1,1.23,1.23,0,0,1,1-.41h1.48a0.13,0.13,0,0,1,.14.14v2.53ZM50.88,49.3a0.39,0.39,0,0,0-.13.32,0.44,0.44,0,0,0,.13.29,3.54,3.54,0,0,0,1,.76,3.29,3.29,0,0,0,1.53.3,3,3,0,0,0,1.14-.22,3.19,3.19,0,0,0,.94-0.59,2.71,2.71,0,0,0,.63-0.86,2.41,2.41,0,0,0,.23-1,3,3,0,0,0-.17-1,2.47,2.47,0,0,0-.48-0.81,3.64,3.64,0,0,0-.78-0.64,8.25,8.25,0,0,0-1.05-.55,5.72,5.72,0,0,1-.76-0.37,2.29,2.29,0,0,1-.5-0.4A1.39,1.39,0,0,1,52.31,44a1.56,1.56,0,0,1-.09-0.56A1.06,1.06,0,0,1,52.33,43a1.28,1.28,0,0,1,.3-0.4,1.58,1.58,0,0,1,.46-0.28,1.54,1.54,0,0,1,.58-0.11,1.64,1.64,0,0,1,.85.23,3.61,3.61,0,0,1,.58.4,0.45,0.45,0,0,0,.3.15,0.44,0.44,0,0,0,.27-0.15L56,42.46a0.38,0.38,0,0,0,0-.6,4,4,0,0,0-.93-0.66,3.21,3.21,0,0,0-2.55-.1,2.76,2.76,0,0,0-.87.57,2.4,2.4,0,0,0-.55.81,2.5,2.5,0,0,0-.19,1,3,3,0,0,0,.17,1,2.53,2.53,0,0,0,.48.81,3.69,3.69,0,0,0,.76.65,8.14,8.14,0,0,0,1,.55,4.86,4.86,0,0,1,1.26.81,1.39,1.39,0,0,1,.4,1,1.21,1.21,0,0,1-.45,1,1.69,1.69,0,0,1-1.14.38,2.19,2.19,0,0,1-.56-0.06,1.94,1.94,0,0,1-.43-0.17,1.85,1.85,0,0,1-.33-0.22L51.8,49a0.5,0.5,0,0,0-.29-0.13,0.38,0.38,0,0,0-.31.13Zm12.3-.36a0.38,0.38,0,0,0-.31-0.13,0.5,0.5,0,0,0-.29.13,3.72,3.72,0,0,1-.71.48,2.22,2.22,0,0,1-1.07.24,1.77,1.77,0,0,1-1.42-.6,2.32,2.32,0,0,1-.51-1.56V44.33A2.69,2.69,0,0,1,59,43.49a2,2,0,0,1,.38-0.69,1.78,1.78,0,0,1,.6-0.46,1.89,1.89,0,0,1,.81-0.17,2,2,0,0,1,1,.23,3.73,3.73,0,0,1,.57.4,0.35,0.35,0,0,0,.58,0l0.33-.33a0.38,0.38,0,0,0,0-.6,3.85,3.85,0,0,0-.4-0.34,2.86,2.86,0,0,0-.55-0.32A3.92,3.92,0,0,0,61.65,41a3.68,3.68,0,0,0-.86-0.09,3.29,3.29,0,0,0-1.31.26,3.18,3.18,0,0,0-1,.71,3.28,3.28,0,0,0-.69,1.09,3.76,3.76,0,0,0-.25,1.39V47.5a3.79,3.79,0,0,0,.25,1.4A3.27,3.27,0,0,0,58.43,50a3.09,3.09,0,0,0,1,.71,3.79,3.79,0,0,0,2.91-.08,4.55,4.55,0,0,0,1.08-.79,0.45,0.45,0,0,0,.13-0.29,0.39,0.39,0,0,0-.13-0.32Zm2.45,1.87a0.4,0.4,0,0,0,.43-0.43V41.45A0.4,0.4,0,0,0,65.62,41h-0.5a0.4,0.4,0,0,0-.43.43v8.93a0.4,0.4,0,0,0,.43.43h0.5Zm7.49,0a0.4,0.4,0,0,0,.43-0.43V49.95a0.4,0.4,0,0,0-.43-0.43h-4A0.13,0.13,0,0,1,69,49.37V46.64a0.13,0.13,0,0,1,.14-0.14h3.38A0.4,0.4,0,0,0,73,46.06V45.63a0.4,0.4,0,0,0-.43-0.43H69.15A0.13,0.13,0,0,1,69,45.05V42.46a0.13,0.13,0,0,1,.14-0.14h3.67a0.4,0.4,0,0,0,.43-0.43V41.45A0.4,0.4,0,0,0,72.82,41H68.07a0.4,0.4,0,0,0-.43.43v8.93a0.4,0.4,0,0,0,.43.43h5Zm8,0a0.4,0.4,0,0,0,.43-0.43V41.45A0.4,0.4,0,0,0,81.1,41H80.6a0.4,0.4,0,0,0-.43.43v6a0.11,0.11,0,0,1-.08.13,0.13,0.13,0,0,1-.14-0.07l-3.5-6.09a0.71,0.71,0,0,0-.26-0.28A0.74,0.74,0,0,0,75.83,41H75.27a0.4,0.4,0,0,0-.43.43v8.93a0.4,0.4,0,0,0,.43.43h0.5a0.4,0.4,0,0,0,.43-0.43V44a0.13,0.13,0,0,1,.08-0.14,0.13,0.13,0,0,1,.15.09l3.66,6.41a1.39,1.39,0,0,0,.25.32,0.47,0.47,0,0,0,.32.11H81.1Zm7.56-1.87a0.38,0.38,0,0,0-.31-0.13,0.51,0.51,0,0,0-.3.13,3.69,3.69,0,0,1-.71.48,2.22,2.22,0,0,1-1.07.24,1.77,1.77,0,0,1-1.42-.6,2.32,2.32,0,0,1-.51-1.56V44.33a2.69,2.69,0,0,1,.13-0.84,2,2,0,0,1,.38-0.69,1.78,1.78,0,0,1,.6-0.46,1.89,1.89,0,0,1,.81-0.17,2,2,0,0,1,1,.23,3.73,3.73,0,0,1,.57.4,0.35,0.35,0,0,0,.58,0l0.33-.33a0.38,0.38,0,0,0,0-.6,3.85,3.85,0,0,0-.4-0.34,2.86,2.86,0,0,0-.55-0.32A3.92,3.92,0,0,0,87.13,41a3.68,3.68,0,0,0-.86-0.09,3.29,3.29,0,0,0-1.31.26,3.18,3.18,0,0,0-1,.71,3.28,3.28,0,0,0-.69,1.09A3.76,3.76,0,0,0,83,44.33V47.5a3.79,3.79,0,0,0,.25,1.4A3.27,3.27,0,0,0,83.91,50a3.09,3.09,0,0,0,1,.71,3.79,3.79,0,0,0,2.91-.08,4.55,4.55,0,0,0,1.08-.79,0.45,0.45,0,0,0,.13-0.29,0.39,0.39,0,0,0-.13-0.32Zm7,1.87a0.4,0.4,0,0,0,.43-0.43V49.95a0.4,0.4,0,0,0-.43-0.43h-4a0.13,0.13,0,0,1-.14-0.14V46.64a0.13,0.13,0,0,1,.14-0.14h3.38a0.4,0.4,0,0,0,.43-0.43V45.63a0.4,0.4,0,0,0-.43-0.43H91.68a0.13,0.13,0,0,1-.14-0.14V42.46a0.13,0.13,0,0,1,.14-0.14h3.67a0.4,0.4,0,0,0,.43-0.43V41.45A0.4,0.4,0,0,0,95.35,41H90.6a0.4,0.4,0,0,0-.43.43v8.93a0.4,0.4,0,0,0,.43.43h5Zm12.09,0a0.27,0.27,0,0,0,.3-0.4l-2.88-9A0.55,0.55,0,0,0,105,41.1a0.59,0.59,0,0,0-.32-0.08h-1a0.59,0.59,0,0,0-.32.08,0.55,0.55,0,0,0-.19.31l-2.88,9a0.27,0.27,0,0,0,.3.4h0.71a0.46,0.46,0,0,0,.49-0.35l0.63-2.1a0.19,0.19,0,0,1,.2-0.14h3.14a0.19,0.19,0,0,1,.2.14l0.63,2.1a0.46,0.46,0,0,0,.49.35h0.71Zm-2.3-4.06a0.12,0.12,0,0,1-.13.17H103a0.12,0.12,0,0,1-.13-0.17l1.15-3.9a0.14,0.14,0,1,1,.29,0Zm8.49,1a2,2,0,0,1-.47,1.38,1.83,1.83,0,0,1-1.45.53,1.72,1.72,0,0,1-1.4-.6,2.36,2.36,0,0,1-.5-1.56V44.33a2.32,2.32,0,0,1,.51-1.56,1.76,1.76,0,0,1,1.42-.6,2,2,0,0,1,1,.23,3.63,3.63,0,0,1,.57.4,0.45,0.45,0,0,0,.3.15,0.44,0.44,0,0,0,.27-0.15l0.33-.33a0.38,0.38,0,0,0,0-.6,3.75,3.75,0,0,0-.4-0.34,2.9,2.9,0,0,0-.55-0.32A3.94,3.94,0,0,0,112.9,41a3.69,3.69,0,0,0-.86-0.09,3.29,3.29,0,0,0-1.31.26,3.18,3.18,0,0,0-1,.71,3.27,3.27,0,0,0-.69,1.09,3.77,3.77,0,0,0-.25,1.39V47.5a3.89,3.89,0,0,0,.24,1.4,3.19,3.19,0,0,0,.68,1.09,3.1,3.1,0,0,0,1,.7A3.32,3.32,0,0,0,112,51a3.74,3.74,0,0,0,1.34-.23,3,3,0,0,0,1-.66,2.92,2.92,0,0,0,.67-1,3.58,3.58,0,0,0,.24-1.33V46.06a0.4,0.4,0,0,0-.43-0.43H112.3a0.4,0.4,0,0,0-.43.43v0.43a0.4,0.4,0,0,0,.43.43h1.48a0.13,0.13,0,0,1,.14.14v0.68Zm7.92,3.07a0.4,0.4,0,0,0,.43-0.43V49.95a0.4,0.4,0,0,0-.43-0.43h-4a0.13,0.13,0,0,1-.14-0.14V46.64a0.13,0.13,0,0,1,.14-0.14h3.38a0.4,0.4,0,0,0,.43-0.43V45.63a0.4,0.4,0,0,0-.43-0.43h-3.38a0.13,0.13,0,0,1-.14-0.14V42.46a0.13,0.13,0,0,1,.14-0.14h3.67a0.4,0.4,0,0,0,.43-0.43V41.45a0.4,0.4,0,0,0-.43-0.43H116.8a0.4,0.4,0,0,0-.43.43v8.93a0.4,0.4,0,0,0,.43.43h5Zm8,0a0.4,0.4,0,0,0,.43-0.43V41.45a0.4,0.4,0,0,0-.43-0.43h-0.5a0.4,0.4,0,0,0-.43.43v6a0.11,0.11,0,0,1-.08.13,0.13,0.13,0,0,1-.14-0.07l-3.5-6.09a0.71,0.71,0,0,0-.26-0.28,0.74,0.74,0,0,0-.36-0.08H124a0.4,0.4,0,0,0-.43.43v8.93a0.4,0.4,0,0,0,.43.43h0.5a0.4,0.4,0,0,0,.43-0.43V44a0.13,0.13,0,0,1,.08-0.14,0.13,0.13,0,0,1,.15.09l3.66,6.41a1.39,1.39,0,0,0,.25.32,0.47,0.47,0,0,0,.32.11h0.43Zm5,0a3.8,3.8,0,0,0,1.45-.27,3.34,3.34,0,0,0,1.12-.73,3.21,3.21,0,0,0,.71-1.09,3.67,3.67,0,0,0,.25-1.37V44.48a3.67,3.67,0,0,0-.25-1.37,3.2,3.2,0,0,0-.71-1.09,3.33,3.33,0,0,0-1.12-.73A3.81,3.81,0,0,0,134.8,41h-2.52a0.4,0.4,0,0,0-.43.43v8.93a0.4,0.4,0,0,0,.43.43h2.52ZM137,47.36a2.51,2.51,0,0,1-.16.92,1.86,1.86,0,0,1-.45.68,2,2,0,0,1-.68.42,2.51,2.51,0,0,1-.87.14h-1.44a0.13,0.13,0,0,1-.14-0.14V42.46a0.13,0.13,0,0,1,.14-0.14h1.44a2.53,2.53,0,0,1,.87.14,1.9,1.9,0,0,1,.68.42,1.93,1.93,0,0,1,.45.68,2.47,2.47,0,0,1,.16.91v2.88Zm9.57,3.46a0.27,0.27,0,0,0,.3-0.4l-2.88-9a0.55,0.55,0,0,0-.19-0.31,0.59,0.59,0,0,0-.32-0.08h-1a0.59,0.59,0,0,0-.32.08,0.55,0.55,0,0,0-.19.31l-2.88,9a0.27,0.27,0,0,0,.3.4H140a0.46,0.46,0,0,0,.49-0.35l0.63-2.1a0.19,0.19,0,0,1,.2-0.14h3.14a0.19,0.19,0,0,1,.2.14l0.63,2.1a0.46,0.46,0,0,0,.49.35h0.71Zm-2.3-4.06a0.12,0.12,0,0,1-.13.17h-2.33a0.12,0.12,0,0,1-.13-0.17l1.15-3.9a0.14,0.14,0,1,1,.29,0Zm-103.15.07q0,1.95-1.12,2a1.58,1.58,0,0,1-1-.76,3.06,3.06,0,0,1-.68-1.19L20.47,4l-0.3-.65q-1.35-3-3.9-3a5.15,5.15,0,0,0-2.1.51,3.75,3.75,0,0,0-2.25,3.76A6.46,6.46,0,0,0,12.44,7Q20,25.36,21,27.67q7.27,17.73,7.27,18.88-0.08,2.3-2,2.3a2.46,2.46,0,0,1-2.53-1.38L6.53,4.48,6.11,3.63Q5.07,2,4.92,1.81A2.43,2.43,0,0,0,3,.94q-3,0-3,4.19V46.75a3.6,3.6,0,0,0,1.39,2.89,4.84,4.84,0,0,0,3.19,1.15,4.89,4.89,0,0,0,3.15-1.08A3.43,3.43,0,0,0,9.07,46.9V25.51a0.88,0.88,0,0,0-1-1,0.91,0.91,0,0,0-1,1V46.9q0,1.95-2.47,1.95T2,46.75V5.34q0-2.52,1-2.6,0.67,0,1.42,1.88l17.39,43.5A4.21,4.21,0,0,0,26.09,51a4.05,4.05,0,0,0,3-1.19,4.12,4.12,0,0,0,1.16-3,5,5,0,0,0-.38-1.88L14.35,6.35a5.32,5.32,0,0,1-.41-1.8A2.11,2.11,0,0,1,14.65,3a2.22,2.22,0,0,1,1.59-.69q1.4,0,2.14,1.87L36.23,47.32l0.22,0.43q1.19,3,3.29,3a2.92,2.92,0,0,0,2.47-1.19,4.5,4.5,0,0,0,.9-2.78v-43a3.35,3.35,0,0,0-1.39-2.75A4.93,4.93,0,0,0,38.61,0a4.78,4.78,0,0,0-3.15,1.12A3.55,3.55,0,0,0,34.11,4V28.68a0.88,0.88,0,0,0,1,.94,0.84,0.84,0,0,0,1-.94V4Q36.14,2,38.61,2a2.87,2.87,0,0,1,1.65.58,1.66,1.66,0,0,1,.82,1.37V46.82"/></svg>