<?xml version="1.0" encoding="utf-8"?>
<svg version="1.1" id="Layer_1" xmlns="http://www.w3.org/2000/svg" xmlns:xlink="http://www.w3.org/1999/xlink" 
     viewBox="0 0 102.94 51.74" style="enable-background:new 0 0 102.94 51.74;" xml:space="preserve">
  <path d="M4.45,49.52H1.9l-0.3.7a1.56,1.56,0,0,0-.15.58,0.48,0.48,0,0,0,.24.45,2.06,2.06,0,0,0,.71.13v0.2H0v-0.2a1.09,1.09,0,0,0,.64-0.32A4.39,4.39,0,0,0,1.26,50L3.84,44.2h0.1l2.61,5.93a3.59,3.59,0,0,0,.61,1.06,0.84,0.84,0,0,0,.51.19v0.2H4.18v-0.2H4.32a1.09,1.09,0,0,0,.59-0.12A0.29,0.29,0,0,0,5,51a0.66,0.66,0,0,0,0-.2s-0.06-.16-0.16-0.4Zm-0.18-.39L3.2,46.63,2.09,49.12H4.27Z" style="fill: #010101;fill-rule: evenodd"/>
  <path d="M12.1,46.59v3.9a1.45,1.45,0,0,0,.11.71,0.62,0.62,0,0,0,.43.18v0.19h-2V50.91a2.61,2.61,0,0,1-.71.62,1.66,1.66,0,0,1-.8.19,1.19,1.19,0,0,1-.75-0.26,1.28,1.28,0,0,1-.44-0.61,4.45,4.45,0,0,1-.11-1.21v-2A1.4,1.4,0,0,0,7.69,47a0.62,0.62,0,0,0-.43-0.18v-0.2h2V50a3,3,0,0,0,0,.69,0.48,0.48,0,0,0,.16.23,0.43,0.43,0,0,0,.26.08,0.61,0.61,0,0,0,.35-0.1,2.18,2.18,0,0,0,.51-0.56V47.67A1.41,1.41,0,0,0,10.5,47a0.63,0.63,0,0,0-.43-0.18v-0.2h2Z" style="fill: #010101"/>
  <path d="M16.13,46.45l0.08,1.7H16a2.66,2.66,0,0,0-.68-1,1.12,1.12,0,0,0-.69-0.28,0.52,0.52,0,0,0-.37.15,0.44,0.44,0,0,0-.15.34,0.44,0.44,0,0,0,.11.28,5.1,5.1,0,0,0,1,.75,3.83,3.83,0,0,1,1,.9,1.44,1.44,0,0,1,.25.83,1.75,1.75,0,0,1-.21.82,1.46,1.46,0,0,1-.59.61,1.68,1.68,0,0,1-.84.21,2.91,2.91,0,0,1-1-.22,0.79,0.79,0,0,0-.22-0.06,0.35,0.35,0,0,0-.29.27H13.2l-0.08-1.79h0.18A2.33,2.33,0,0,0,13.95,51a1.27,1.27,0,0,0,.79.35,0.57,0.57,0,0,0,.42-0.15,0.51,0.51,0,0,0,.16-0.38,0.66,0.66,0,0,0-.16-0.44,4.16,4.16,0,0,0-.71-0.56,5.6,5.6,0,0,1-1.06-.86,1.51,1.51,0,0,1-.35-1,1.56,1.56,0,0,1,.39-1,1.43,1.43,0,0,1,1.15-.47,1.67,1.67,0,0,1,.78.2,0.52,0.52,0,0,0,.23.08,0.28,0.28,0,0,0,.15,0,1.11,1.11,0,0,0,.19-0.23h0.18Z" style="fill: #010101"/>
  <path d="M18.77,44.77v1.82H20v0.53H18.77v3.07a2.57,2.57,0,0,0,0,.56,0.44,0.44,0,0,0,.14.2,0.33,0.33,0,0,0,.19.07,0.85,0.85,0,0,0,.66-0.53L20,50.62a1.46,1.46,0,0,1-1.4,1,1.26,1.26,0,0,1-.8-0.26,1.18,1.18,0,0,1-.42-0.59,5,5,0,0,1-.05-1V47.12H16.62V46.93a6.72,6.72,0,0,0,1.14-1,6,6,0,0,0,.83-1.17h0.18Z" style="fill: #010101"/>
  <path d="M22.38,46.59v1.13a3.59,3.59,0,0,1,.87-1A1.28,1.28,0,0,1,24,46.44a0.62,0.62,0,0,1,.47.19,0.7,0.7,0,0,1,.18.52,0.81,0.81,0,0,1-.18.55,0.53,0.53,0,0,1-.42.2,0.72,0.72,0,0,1-.49-0.18l-0.24-.2a0.24,0.24,0,0,0-.12,0,0.45,0.45,0,0,0-.29.12,1.11,1.11,0,0,0-.33.52,3.61,3.61,0,0,0-.17,1.14V50.7a1.21,1.21,0,0,0,0,.39,0.44,0.44,0,0,0,.19.21,1.17,1.17,0,0,0,.43.08v0.19H20.35V51.38a0.58,0.58,0,0,0,.44-0.18,1.65,1.65,0,0,0,.12-0.81V47.65a2.07,2.07,0,0,0,0-.54,0.43,0.43,0,0,0-.15-0.22,0.84,0.84,0,0,0-.36-0.1v-0.2h2Z" style="fill: #010101"/>
  <path d="M27.36,50.84a2.63,2.63,0,0,1-1.64.81A1,1,0,0,1,25,51.37a1,1,0,0,1-.28-0.7,1.37,1.37,0,0,1,.49-1,9.2,9.2,0,0,1,2.14-1.21v-0.5a2.29,2.29,0,0,0-.06-0.71A0.54,0.54,0,0,0,27.07,47a0.68,0.68,0,0,0-.38-0.11,1,1,0,0,0-.57.15,0.27,0.27,0,0,0-.14.22,0.47,0.47,0,0,0,.15.28,0.68,0.68,0,0,1,.2.44,0.59,0.59,0,0,1-.2.45,0.71,0.71,0,0,1-.51.18,0.82,0.82,0,0,1-.56-0.2,0.62,0.62,0,0,1-.22-0.47,1.1,1.1,0,0,1,.3-0.73A1.9,1.9,0,0,1,26,46.63a3.48,3.48,0,0,1,1.13-.19,1.85,1.85,0,0,1,1.12.3,1.4,1.4,0,0,1,.54.65,4.29,4.29,0,0,1,.07,1v1.93a2.08,2.08,0,0,0,0,.43,0.25,0.25,0,0,0,.08.13,0.19,0.19,0,0,0,.12,0,0.39,0.39,0,0,0,.28-0.2l0.16,0.13a2,2,0,0,1-.55.58,1.2,1.2,0,0,1-.65.18,1,1,0,0,1-.67-0.2,0.92,0.92,0,0,1-.29-0.61m0-.39V48.78a3.1,3.1,0,0,0-1,.81,1,1,0,0,0-.21.58,0.61,0.61,0,0,0,.18.43,0.48,0.48,0,0,0,.37.14,1,1,0,0,0,.62-0.3" style="fill: #010101;fill-rule: evenodd"/>
  <path d="M31.69,44.35v6.19a1.2,1.2,0,0,0,.12.68,0.67,0.67,0,0,0,.48.17v0.19H29.61V51.38a0.65,0.65,0,0,0,.49-0.19,1.2,1.2,0,0,0,.11-0.65V45.38a1.16,1.16,0,0,0-.12-0.67,0.65,0.65,0,0,0-.47-0.17v-0.2h2.09Z" style="fill: #010101"/>
  <path d="M34,44.18a0.83,0.83,0,1,1-.58.25A0.79,0.79,0,0,1,34,44.18m0.75,2.41v3.95a1.2,1.2,0,0,0,.12.68,0.67,0.67,0,0,0,.48.16v0.19H32.63V51.38a0.65,0.65,0,0,0,.49-0.19,1.2,1.2,0,0,0,.11-0.65V47.63A1.18,1.18,0,0,0,33.11,47a0.65,0.65,0,0,0-.47-0.17v-0.2h2.09Z" style="fill: #010101;fill-rule: evenodd"/>
  <path d="M38.23,50.84a2.63,2.63,0,0,1-1.64.81,1,1,0,0,1-.71-0.28,1,1,0,0,1-.28-0.7,1.37,1.37,0,0,1,.49-1,9.2,9.2,0,0,1,2.14-1.21v-0.5a2.29,2.29,0,0,0-.06-0.71A0.54,0.54,0,0,0,37.94,47a0.68,0.68,0,0,0-.38-0.11A1,1,0,0,0,37,47a0.27,0.27,0,0,0-.14.22,0.47,0.47,0,0,0,.15.28,0.68,0.68,0,0,1,.2.44,0.59,0.59,0,0,1-.2.45,0.71,0.71,0,0,1-.51.18,0.82,0.82,0,0,1-.56-0.2,0.62,0.62,0,0,1-.22-0.47,1.1,1.1,0,0,1,.3-0.73,1.91,1.91,0,0,1,.85-0.54A3.48,3.48,0,0,1,38,46.44a1.85,1.85,0,0,1,1.12.3,1.4,1.4,0,0,1,.54.65,4.26,4.26,0,0,1,.07,1v1.93a2.06,2.06,0,0,0,0,.43,0.25,0.25,0,0,0,.08.13,0.19,0.19,0,0,0,.12,0,0.39,0.39,0,0,0,.28-0.2l0.16,0.13a2,2,0,0,1-.55.58,1.2,1.2,0,0,1-.65.18,1,1,0,0,1-.67-0.2,0.92,0.92,0,0,1-.29-0.61m0-.39V48.78a3.1,3.1,0,0,0-1,.81,1,1,0,0,0-.21.58,0.61,0.61,0,0,0,.18.43,0.48,0.48,0,0,0,.37.14,1,1,0,0,0,.62-0.3" style="fill: #010101;fill-rule: evenodd"/>
  <path d="M42.54,46.59v0.65a2.86,2.86,0,0,1,.74-0.6A1.56,1.56,0,0,1,44,46.44a1.2,1.2,0,0,1,.8.27,1.27,1.27,0,0,1,.43.67,5.17,5.17,0,0,1,.09,1.17v1.94a1.53,1.53,0,0,0,.1.72,0.63,0.63,0,0,0,.44.18v0.19H43.36V51.38a0.53,0.53,0,0,0,.4-0.23,1.53,1.53,0,0,0,.09-0.66V48.27a3.63,3.63,0,0,0,0-.77,0.45,0.45,0,0,0-.17-0.24,0.39,0.39,0,0,0-.25-0.09,1.08,1.08,0,0,0-.85.66v2.67a1.51,1.51,0,0,0,.1.71,0.54,0.54,0,0,0,.39.19v0.19H40.51V51.38a0.62,0.62,0,0,0,.45-0.2A1.49,1.49,0,0,0,41,50.49V47.67a1.41,1.41,0,0,0-.11-0.7,0.62,0.62,0,0,0-.43-0.18v-0.2h2Z" style="fill: #010101"/>
  <path d="M55.7,44.18v2.55H55.5a3.25,3.25,0,0,0-1.07-1.59,2.52,2.52,0,0,0-1.56-.54,2,2,0,0,0-1.35.46,2.45,2.45,0,0,0-.76,1.27A6.27,6.27,0,0,0,50.54,48a6.12,6.12,0,0,0,.24,1.82A2.07,2.07,0,0,0,51.57,51a2.28,2.28,0,0,0,1.3.37,2.76,2.76,0,0,0,.53-0.05A4,4,0,0,0,54,51.12v-1.5a1.59,1.59,0,0,0-.06-0.55,0.54,0.54,0,0,0-.25-0.23,0.89,0.89,0,0,0-.44-0.1H53v-0.2h3.51v0.2a1.53,1.53,0,0,0-.56.11,0.53,0.53,0,0,0-.24.27,1.51,1.51,0,0,0,0,.5v1.5a7,7,0,0,1-1.44.46,7.36,7.36,0,0,1-1.55.16A4.56,4.56,0,0,1,51,51.47a4.39,4.39,0,0,1-1.2-.74,3.53,3.53,0,0,1-.81-1,3.59,3.59,0,0,1-.37-1.65,3.71,3.71,0,0,1,1.15-2.76,4,4,0,0,1,2.88-1.12,5,5,0,0,1,1,.09,4.84,4.84,0,0,1,.76.24,3.26,3.26,0,0,0,.62.2,0.43,0.43,0,0,0,.28-0.11,1,1,0,0,0,.23-0.42h0.2Z" style="fill: #010101"/>
  <path d="M59.16,46.44a2.31,2.31,0,0,1,1.21.34,2.13,2.13,0,0,1,.85,1,3.12,3.12,0,0,1,.29,1.35A2.86,2.86,0,0,1,61,50.86a2.12,2.12,0,0,1-1.8.86,2.06,2.06,0,0,1-1.73-.79,2.91,2.91,0,0,1-.61-1.83,3,3,0,0,1,.62-1.87,2,2,0,0,1,1.71-.8m0,0.38a0.62,0.62,0,0,0-.47.21,1.44,1.44,0,0,0-.26.81q-0.06.6-.06,1.68a7.21,7.21,0,0,0,.07,1.07,1,1,0,0,0,.25.58,0.59,0.59,0,0,0,.44.2,0.6,0.6,0,0,0,.4-0.13,0.9,0.9,0,0,0,.28-0.51,12.29,12.29,0,0,0,.11-2,5,5,0,0,0-.1-1.24,1,1,0,0,0-.3-0.5,0.56,0.56,0,0,0-.36-0.11" style="fill: #010101;fill-rule: evenodd"/>
  <path d="M63.86,51.72l-1.68-3.86A3.83,3.83,0,0,0,61.71,47a0.63,0.63,0,0,0-.36-0.19v-0.2H64v0.2a0.48,0.48,0,0,0-.34.09,0.37,0.37,0,0,0-.13.28,2.37,2.37,0,0,0,.23.74l0.82,1.87,0.66-1.61a3.13,3.13,0,0,0,.28-1,0.33,0.33,0,0,0-.12-0.27A0.67,0.67,0,0,0,65,46.79v-0.2H66.6v0.2a0.66,0.66,0,0,0-.38.18,3.27,3.27,0,0,0-.45.85l-1.66,3.91H63.86Z" style="fill: #010101"/>
  <path d="M70.52,48.9H67.79a2.58,2.58,0,0,0,.53,1.57,1.11,1.11,0,0,0,.88.44,1,1,0,0,0,.58-0.18,2.3,2.3,0,0,0,.56-0.64l0.18,0.12a3,3,0,0,1-.9,1.17,1.94,1.94,0,0,1-1.13.34,1.89,1.89,0,0,1-1.68-.85,3,3,0,0,1-.46-1.71,2.83,2.83,0,0,1,.67-2,2.08,2.08,0,0,1,1.58-.74,1.7,1.7,0,0,1,1.31.62,2.81,2.81,0,0,1,.6,1.84m-1.31-.36a4.78,4.78,0,0,0-.1-1.18,1,1,0,0,0-.29-0.48,0.44,0.44,0,0,0-.3-0.1,0.52,0.52,0,0,0-.45.27,2.33,2.33,0,0,0-.31,1.3v0.19h1.45Z" style="fill: #010101;fill-rule: evenodd"/>
  <path d="M72.89,46.59v1.13a3.59,3.59,0,0,1,.87-1,1.28,1.28,0,0,1,.72-0.26,0.62,0.62,0,0,1,.47.19,0.7,0.7,0,0,1,.18.52,0.81,0.81,0,0,1-.18.55,0.53,0.53,0,0,1-.42.2,0.72,0.72,0,0,1-.49-0.18l-0.24-.2a0.24,0.24,0,0,0-.12,0,0.45,0.45,0,0,0-.29.12,1.11,1.11,0,0,0-.33.52,3.61,3.61,0,0,0-.17,1.14V50.7a1.21,1.21,0,0,0,0,.39,0.44,0.44,0,0,0,.19.21,1.17,1.17,0,0,0,.43.08v0.19H70.85V51.38a0.58,0.58,0,0,0,.44-0.18,1.65,1.65,0,0,0,.12-0.81V47.65a2.07,2.07,0,0,0,0-.54,0.43,0.43,0,0,0-.15-0.22,0.84,0.84,0,0,0-.36-0.1v-0.2h2Z" style="fill: #010101"/>
  <path d="M77.48,46.59v0.65a2.86,2.86,0,0,1,.74-0.6A1.56,1.56,0,0,1,79,46.44a1.2,1.2,0,0,1,.8.27,1.27,1.27,0,0,1,.43.67,5.17,5.17,0,0,1,.09,1.17v1.94a1.53,1.53,0,0,0,.1.72,0.63,0.63,0,0,0,.44.18v0.19H78.31V51.38a0.53,0.53,0,0,0,.4-0.23,1.53,1.53,0,0,0,.09-0.66V48.27a3.63,3.63,0,0,0,0-.77,0.45,0.45,0,0,0-.17-0.24,0.39,0.39,0,0,0-.25-0.09,1.08,1.08,0,0,0-.85.66v2.67a1.52,1.52,0,0,0,.1.71,0.54,0.54,0,0,0,.39.19v0.19H75.45V51.38a0.62,0.62,0,0,0,.45-0.2A1.49,1.49,0,0,0,76,50.49V47.67a1.41,1.41,0,0,0-.11-0.7,0.63,0.63,0,0,0-.43-0.18v-0.2h2Z" style="fill: #010101"/>
  <path d="M83.26,46.59v0.66A2.83,2.83,0,0,1,84,46.62a1.65,1.65,0,0,1,.77-0.18,1.38,1.38,0,0,1,.8.22,1.41,1.41,0,0,1,.5.68,3.19,3.19,0,0,1,.82-0.69,1.71,1.71,0,0,1,.82-0.21,1.29,1.29,0,0,1,.82.24,1.19,1.19,0,0,1,.43.6,4,4,0,0,1,.12,1.16v2a1.5,1.5,0,0,0,.1.71,0.64,0.64,0,0,0,.44.18v0.19H87.06V51.38a0.57,0.57,0,0,0,.45-0.23,1.41,1.41,0,0,0,.1-0.66V48.34a4,4,0,0,0-.05-0.85,0.49,0.49,0,0,0-.17-0.27,0.42,0.42,0,0,0-.27-0.09,0.79,0.79,0,0,0-.46.17,2.11,2.11,0,0,0-.47.5v2.68a1.52,1.52,0,0,0,.09.68,0.55,0.55,0,0,0,.47.22v0.19H84.15V51.38a0.57,0.57,0,0,0,.33-0.1,0.45,0.45,0,0,0,.16-0.22,2.36,2.36,0,0,0,0-.57V48.34a3.89,3.89,0,0,0-.05-0.85,0.52,0.52,0,0,0-.18-0.27,0.42,0.42,0,0,0-.27-0.1,0.72,0.72,0,0,0-.39.11,2.19,2.19,0,0,0-.53.57v2.68a1.57,1.57,0,0,0,.1.7,0.56,0.56,0,0,0,.44.2v0.19H81.23V51.38a0.62,0.62,0,0,0,.45-0.2,1.49,1.49,0,0,0,.09-0.69V47.67a1.41,1.41,0,0,0-.11-0.7,0.63,0.63,0,0,0-.43-0.18v-0.2h2Z" style="fill: #010101"/>
  <path d="M94.07,48.9H91.33a2.58,2.58,0,0,0,.53,1.57,1.11,1.11,0,0,0,.88.44,1,1,0,0,0,.58-0.18,2.3,2.3,0,0,0,.56-0.64l0.18,0.12a3,3,0,0,1-.9,1.17,1.94,1.94,0,0,1-1.13.34,1.89,1.89,0,0,1-1.68-.85,3,3,0,0,1-.46-1.71,2.83,2.83,0,0,1,.67-2,2.08,2.08,0,0,1,1.58-.74,1.7,1.7,0,0,1,1.31.62,2.81,2.81,0,0,1,.6,1.84m-1.31-.36a4.78,4.78,0,0,0-.1-1.18,1,1,0,0,0-.29-0.48,0.44,0.44,0,0,0-.3-0.1,0.52,0.52,0,0,0-.45.27,2.33,2.33,0,0,0-.31,1.3v0.19h1.45Z" style="fill: #010101;fill-rule: evenodd"/>
  <path d="M96.29,46.59v0.65a2.87,2.87,0,0,1,.74-0.6,1.56,1.56,0,0,1,.76-0.19,1.2,1.2,0,0,1,.8.27,1.27,1.27,0,0,1,.43.67,5.17,5.17,0,0,1,.09,1.17v1.94a1.53,1.53,0,0,0,.1.72,0.63,0.63,0,0,0,.44.18v0.19H97.11V51.38a0.53,0.53,0,0,0,.4-0.23,1.54,1.54,0,0,0,.09-0.66V48.27a3.63,3.63,0,0,0,0-.77,0.45,0.45,0,0,0-.17-0.24,0.39,0.39,0,0,0-.25-0.09,1.08,1.08,0,0,0-.85.66v2.67a1.52,1.52,0,0,0,.1.71,0.54,0.54,0,0,0,.39.19v0.19H94.26V51.38a0.62,0.62,0,0,0,.45-0.2,1.49,1.49,0,0,0,.09-0.69V47.67a1.41,1.41,0,0,0-.11-0.7,0.63,0.63,0,0,0-.43-0.18v-0.2h2Z" style="fill: #010101"/>
  <path d="M101.75,44.77v1.82h1.18v0.53h-1.18v3.07a2.57,2.57,0,0,0,0,.56,0.44,0.44,0,0,0,.14.2,0.33,0.33,0,0,0,.19.07,0.85,0.85,0,0,0,.66-0.53l0.16,0.12a1.46,1.46,0,0,1-1.4,1,1.26,1.26,0,0,1-.8-0.26,1.18,1.18,0,0,1-.42-0.59,4.94,4.94,0,0,1-.05-1V47.12H99.61V46.93a6.78,6.78,0,0,0,1.14-1,6,6,0,0,0,.83-1.17h0.18Z" style="fill: #010101"/>
  <path d="M42.82,31.31a0.33,0.33,0,0,1-.14.14" style="fill: #010101"/>
  <path d="M44.07,21.56a0.26,0.26,0,1,0-.26-0.26,0.26,0.26,0,0,0,.26.26" style="fill: #010101"/>
  <path d="M56.16,10.53h-9.4v7.59a1.72,1.72,0,0,0,.74,1.57l3.62,2.16a0.44,0.44,0,0,0,.62,0l3.67-2.19a1.72,1.72,0,0,0,.74-1.57V10.53h0Zm-6.28,2.2H49.07V10.79h0.81v1.95Zm-0.59.68,0.12-.12-0.07-.13,0.15,0L49.58,13l0.09,0.16h0.15l-0.07.13,0.12,0.12-0.15,0V13.6l-0.14-.1-0.14.1V13.44ZM47,14h1v1.85H47V14Zm0.16-.83,0.15,0L47.43,13l0.09,0.16h0.15l-0.07.13,0.12,0.12-0.15,0V13.6l-0.14-.1-0.14.1V13.44l-0.15,0,0.12-.12ZM48.3,15l0.15,0,0.09-.16L48.63,15h0.15l-0.07.13,0.12,0.12-0.15,0v0.16l-0.14-.1-0.14.1V15.31l-0.15,0,0.12-.12ZM49,13.55a0.1,0.1,0,0,0-.1-0.06,1.61,1.61,0,0,0-.2.15c-0.05,0-.09,0-0.09-0.06a0.43,0.43,0,0,1,.15-0.13,0.88,0.88,0,0,0-.72.28c-0.16,0,.13-0.29.22-0.38a1.5,1.5,0,0,1-.33-0.25c0.06-.09.1-0.05,0.18,0A0.16,0.16,0,0,1,48.26,13c0.27,0,.2.26,0.24,0.26s0-.26.18-0.26,0.61,0.7.3,0.7c-0.13,0,0-.1,0-0.12m-0.7-2,0.12-.12-0.07-.13,0.15,0,0.09-.16,0.09,0.16h0.15l-0.07.13,0.12,0.12-0.15,0v0.16l-0.14-.1-0.14.1V11.54ZM48,12.73H47V10.79h1v1.95Zm1.87,8.09-2.25-1.34A1.62,1.62,0,0,1,47,18.22V16.08h2.86v4.73ZM49.07,14h0.81v1.85H49.07V14Zm3.71,7-1,.62h0a0.43,0.43,0,0,1-.55,0l-1-.62V16.08h2.64V21Zm0-5.14H50.14v-5h2.64v5Zm3.12,2.39a1.61,1.61,0,0,1-.61,1.25L53,20.82V16.08h2.86v2.14Zm0-2.39H53v-5h2.86v5Z" style="fill: #010101"/>
  <path d="M49.73,17.82a0.41,0.41,0,0,0-.26.11,1,1,0,0,1,.29-0.39c0-.12-0.17,0-0.33.07,0.54-.77.19-0.45-0.11-0.4,0.48-.52.35-0.51,0-0.35a0.6,0.6,0,0,0,.29-0.56,1.13,1.13,0,0,0-.5.61,1.29,1.29,0,0,1-.18.68c-0.14.15,0-.57-0.4-0.57a0.58,0.58,0,0,0-.48.13,0.35,0.35,0,0,1,.19.27c0,0.08.07,0.28-.06,0.28a0.46,0.46,0,0,1-.27-0.39c0-.13,0-0.1,0-0.28a1,1,0,0,0-.7-0.73,4.46,4.46,0,0,1,.28.53c-0.12,0-.28-0.22-0.28-0.08s0.18,0.16.18,0.28a2.15,2.15,0,0,0-.2.08,0.85,0.85,0,0,0,.14.2,0.14,0.14,0,0,0-.17,0,0.12,0.12,0,0,0,.09.12,0.38,0.38,0,0,0-.05.27,0.77,0.77,0,0,0,.65.88c0.2,0,.17-0.14.19-0.2,0,0.1.1-.05,0.1,0.13a2.31,2.31,0,0,1-.19.26c0,0.21.3,0,.3,0.23a2.84,2.84,0,0,1,0,.39,0.35,0.35,0,0,0,.3-0.14,0.51,0.51,0,0,0,.21.24,1.31,1.31,0,0,0,.18-0.25s0.28,0.21.28,0.11a1.65,1.65,0,0,0-.11-0.35,1.52,1.52,0,0,1,.33-0.23,0.33,0.33,0,0,1-.13-0.16s-0.3-.44.07-0.2,0.43-.59.41-0.63" style="fill: #010101"/>
  <path d="M59.76,19.81a0.27,0.27,0,1,0-.31-0.27,0.29,0.29,0,0,0,.31.27" style="fill: #010101"/>
  <path d="M58.51,20.55a0.27,0.27,0,1,0-.31-0.27,0.29,0.29,0,0,0,.31.27" style="fill: #010101"/>
  <path d="M43.65,22.27A0.27,0.27,0,1,0,43.34,22a0.29,0.29,0,0,0,.31.27" style="fill: #010101"/>
  <path d="M44.61,22.35a0.28,0.28,0,1,0-.31-0.27,0.29,0.29,0,0,0,.31.27" style="fill: #010101"/>
  <path d="M71.37,9.38a1.94,1.94,0,0,1,.23,2c-0.18,0-.15-0.25-0.18-0.38A2.46,2.46,0,0,1,71.12,9a0.63,0.63,0,0,1,.25.41" style="fill: #010101"/>
  <path d="M32.11,10.13a2.93,2.93,0,0,0,0,1.3C32,11.51,32,11.35,32,11.36c-0.64-.46-0.34-1.37-0.51-2a0.13,0.13,0,0,1,.16,0,1.18,1.18,0,0,1,.49.81" style="fill: #010101"/>
  <path d="M72.78,10.18a0.37,0.37,0,0,1-.21.45,0.42,0.42,0,0,1-.41-0.18,0.38,0.38,0,0,1,.2-0.43,0.43,0.43,0,0,1,.43.17" style="fill: #010101"/>
  <path d="M31.11,10.9a0.49,0.49,0,0,1-.21.36,0.41,0.41,0,0,1-.31-0.08,0.3,0.3,0,0,1-.07-0.35,0.38,0.38,0,0,1,.31-0.15,0.41,0.41,0,0,1,.28.22" style="fill: #010101"/>
  <path d="M73.42,11.18a0.37,0.37,0,0,1,0,.26,0.37,0.37,0,0,1-.44.15,0.44,0.44,0,0,1-.18-0.28,0.5,0.5,0,0,1,.28-0.3,0.52,0.52,0,0,1,.34.17" style="fill: #010101"/>
  <path d="M72.48,11.2c0.13,0.07,0,.23,0,0.33a0.36,0.36,0,0,1-.34.16,0.49,0.49,0,0,1-.21-0.2,0.36,0.36,0,0,1,.23-0.38,0.4,0.4,0,0,1,.31.08" style="fill: #010101"/>
  <path d="M71.28,11.45c0,0.18,0,.41-0.2.45a0.31,0.31,0,0,1-.38-0.23,0.39,0.39,0,0,1,.25-0.4,0.45,0.45,0,0,1,.33.18" style="fill: #010101"/>
  <path d="M32.89,11.53a0.36,0.36,0,0,1-.21.35,0.33,0.33,0,0,1-.33-0.18c-0.11-.11,0-0.22.07-0.31a0.3,0.3,0,0,1,.48.15" style="fill: #010101"/>
  <path d="M31.91,11.58a0.34,0.34,0,0,1-.18.31,0.3,0.3,0,0,1-.33-0.15,0.28,0.28,0,0,1,.15-0.38,0.31,0.31,0,0,1,.36.22" style="fill: #010101"/>
  <path d="M67.32,11.64a3.47,3.47,0,0,1,.33,1.19,1.73,1.73,0,0,1-.18.94,1.36,1.36,0,0,1-.39-0.51,2.88,2.88,0,0,1,.07-1.82c0.13,0,.13.12,0.18,0.2" style="fill: #010101"/>
  <path d="M31.14,11.84a0.43,0.43,0,0,1-.21.41A0.38,0.38,0,0,1,30.52,12a0.41,0.41,0,0,1,.21-0.4,0.42,0.42,0,0,1,.41.21" style="fill: #010101"/>
  <path d="M69.91,12.32A2.39,2.39,0,0,1,70,13.91l-0.1.08a6.36,6.36,0,0,1-.67-1.34,2.2,2.2,0,0,1,.2-0.94c0.12-.08.18,0,0.23,0.12a0.65,0.65,0,0,0,.26.5" style="fill: #010101"/>
  <path d="M72,12a0.42,0.42,0,0,1-.25.4,0.29,0.29,0,0,1-.38-0.2,0.36,0.36,0,0,1,.18-0.4A0.36,0.36,0,0,1,72,12" style="fill: #010101"/>
  <path d="M31.93,12.54a0.35,0.35,0,0,1-.25.31c-0.13.1-.23-0.07-0.34-0.12a0.39,0.39,0,0,1,0-.38,0.37,0.37,0,0,1,.26-0.13,0.52,0.52,0,0,1,.33.31" style="fill: #010101"/>
  <path d="M32.65,12.45a0.33,0.33,0,0,1-.18.33,0.32,0.32,0,0,1-.38-0.2,0.37,0.37,0,0,1,.18-0.36,0.33,0.33,0,0,1,.38.23" style="fill: #010101"/>
  <path d="M72.43,12.4c0,0.22-.35.43-0.38,0.64A1.66,1.66,0,0,1,71,14a0.79,0.79,0,0,1-.38.21,1.73,1.73,0,0,1,.44-0.92,2.43,2.43,0,0,1,1.33-.86" style="fill: #010101"/>
  <path d="M31.6,13.1a6,6,0,0,0,.67.78,0.14,0.14,0,0,1-.11.17,2.69,2.69,0,0,1-1.74-1.45c0-.18.26,0,0.38,0a3.5,3.5,0,0,1,.8.56" style="fill: #010101"/>
  <path d="M72.66,13.33a2.12,2.12,0,0,1-1,1.78,0.65,0.65,0,0,1-.56.13,8.28,8.28,0,0,1,1.44-1.92h0.13Z" style="fill: #010101"/>
  <path d="M69.51,13.81a0.4,0.4,0,0,1-.28.48A0.43,0.43,0,0,1,68.86,14a0.34,0.34,0,0,1,.23-0.36,0.27,0.27,0,0,1,.2-0.05,0.64,0.64,0,0,1,.23.2" style="fill: #010101"/>
  <path d="M30.7,14a9.7,9.7,0,0,1,.89.78,1.19,1.19,0,0,1-.72,0c-0.56-.2-0.93-0.68-1.51-0.84,0-.18.23-0.12,0.34-0.17a3,3,0,0,1,1,.22" style="fill: #010101"/>
  <path d="M49.7,9.65l0.12,0Z" style="fill: #010101"/>
  <path d="M35.42,14.25a0.36,0.36,0,0,1-.25.38,0.48,0.48,0,0,1-.31-0.2,0.33,0.33,0,0,1,.23-0.38,0.35,0.35,0,0,1,.33.2" style="fill: #010101"/>
  <path d="M34.35,14.25a0.36,0.36,0,0,1,.07.38,0.27,0.27,0,0,1-.39.05,0.28,0.28,0,0,1-.11-0.35,0.32,0.32,0,0,1,.44-0.08" style="fill: #010101"/>
  <path d="M57.18,14.44v0" style="fill: #010101"/>
  <path d="M69.68,14.72a0.32,0.32,0,0,1-.21.38,0.37,0.37,0,0,1-.38-0.3,0.31,0.31,0,0,1,.25-0.25,0.32,0.32,0,0,1,.34.16" style="fill: #010101"/>
  <path d="M70.55,14.68c0,0.08.16,0.22,0,.3a0.64,0.64,0,0,0-.16.13,0.32,0.32,0,0,1-.39-0.2,0.35,0.35,0,0,1,.25-0.35,0.31,0.31,0,0,1,.28.12" style="fill: #010101"/>
  <path d="M30.24,14.88a0.32,0.32,0,0,1-.44.21,0.69,0.69,0,0,1-.13-0.21,0.3,0.3,0,0,1,.18-0.28,0.39,0.39,0,0,1,.39.28" style="fill: #010101"/>
  <path d="M35.77,15.16a0.52,0.52,0,0,1-.28.31,0.42,0.42,0,0,1-.36-0.23,0.33,0.33,0,0,1,.2-0.33,0.37,0.37,0,0,1,.44.25" style="fill: #010101"/>
  <path d="M34.8,15a0.25,0.25,0,0,1,0,.26,0.36,0.36,0,0,1-.41.13,0.31,0.31,0,0,1-.18-0.31,0.73,0.73,0,0,1,.25-0.2,0.34,0.34,0,0,1,.29.12" style="fill: #010101"/>
  <path d="M73.06,15.25a0.44,0.44,0,0,1-.21.31,0.32,0.32,0,0,1-.36-0.08c-0.1,0-.07-0.16-0.07-0.25A0.57,0.57,0,0,1,72.73,15a0.6,0.6,0,0,1,.33.23" style="fill: #010101"/>
  <path d="M74.1,15.39a0.41,0.41,0,0,1-.31.3c-0.1,0-.28,0-0.25-0.2a0.29,0.29,0,0,1,.15-0.26,0.29,0.29,0,0,1,.41.17" style="fill: #010101"/>
  <path d="M32.11,15.63a0.32,0.32,0,0,1-.2.4,0.28,0.28,0,0,1-.31-0.08,0.28,0.28,0,0,1-.08-0.33,0.37,0.37,0,0,1,.28-0.18,0.41,0.41,0,0,1,.31.2" style="fill: #010101"/>
  <path d="M32.91,15.77a0.38,0.38,0,0,1-.13.28,0.27,0.27,0,0,1-.3,0,0.29,0.29,0,0,1-.13-0.4,0.32,0.32,0,0,1,.56.08" style="fill: #010101"/>
  <path d="M72.09,15.69a0.52,0.52,0,0,1-.23.38,0.28,0.28,0,0,1-.33-0.2,0.34,0.34,0,0,1,.18-0.31,0.36,0.36,0,0,1,.38.13" style="fill: #010101"/>
  <path d="M73.43,16a0.51,0.51,0,0,1-.18.41,0.47,0.47,0,0,1-.39-0.07A0.3,0.3,0,0,1,72.79,16a0.39,0.39,0,0,1,.39-0.2c0.12,0.07.15,0.15,0.25,0.2" style="fill: #010101"/>
  <path d="M31.49,16.3c0.07,0.13-.08.16-0.13,0.23a0.33,0.33,0,0,1-.33,0,0.28,0.28,0,0,1,0-.31c0.15-.28.44-0.08,0.51,0.12" style="fill: #010101"/>
  <path d="M72.4,16.62c0.07,0,0,.12,0,0.15a1.24,1.24,0,0,1-1.33-.07,5.16,5.16,0,0,0-.66-0.36A0.71,0.71,0,0,1,71,16.09a11.43,11.43,0,0,0,1.38.53" style="fill: #010101"/>
  <path d="M32.27,16.47a0.42,0.42,0,0,1-.1.28,0.22,0.22,0,0,1-.28,0,0.28,0.28,0,1,1,.38-0.31" style="fill: #010101"/>
  <path d="M33.71,16.57a0.3,0.3,0,0,1-.16.36,0.41,0.41,0,0,1-.31,0c-0.08-.12-0.23-0.25-0.08-0.38a0.32,0.32,0,0,1,.56.07" style="fill: #010101"/>
  <path d="M52.67,17.27c0,0.33-.58,0-0.5.39a2.53,2.53,0,0,0,.33.93,1.37,1.37,0,0,1,.06.83,1.48,1.48,0,0,1-.62.53c-0.47,0-1.15.23-1.37-.35a2.35,2.35,0,0,1-.27-0.78,0.7,0.7,0,0,0,.16-0.08,2.05,2.05,0,0,1-.11-0.28c0.53-.09-0.22-0.56.23-0.6,0.37,0.39,1,.27,1.31.69a1.42,1.42,0,0,0,.23.2c-0.06-.39-0.25-0.78-0.31-1.21A0.55,0.55,0,0,1,52,17c0.28-.22.51,0.09,0.67,0.27" style="fill: #010101"/>
  <path d="M35.16,17.16a0.33,0.33,0,0,1-.18.35c-0.15.07-.23-0.1-0.29-0.18A0.3,0.3,0,0,1,34.85,17a0.35,0.35,0,0,1,.31.17" style="fill: #010101"/>
  <path d="M45.28,17.33a2.27,2.27,0,0,1-.2,1.85c0,0.13,0,.35-0.15.33A2.52,2.52,0,0,1,45,17.39c0-.17.23-0.23,0.28-0.07" style="fill: #010101"/>
  <path d="M59.31,17.64a1.86,1.86,0,0,1,0,1.54l-0.13.13a3.78,3.78,0,0,1-.38-1.17,3.91,3.91,0,0,0,.2-0.88c0.23,0,.21.25,0.28,0.38" style="fill: #010101"/>
  <path d="M36.44,17.82a1.52,1.52,0,0,1-.56.38,2,2,0,0,1-1.46.28,1.78,1.78,0,0,1,1.87-.78,0.9,0.9,0,0,1,.15.12" style="fill: #010101"/>
  <path d="M29.7,18.42A4.46,4.46,0,0,1,30.83,20c0,0.07.21,0.08,0.15,0.22a1.13,1.13,0,0,1-.44-0.07,1.81,1.81,0,0,1-1-1.7c0-.07.1-0.07,0.16-0.07" style="fill: #010101"/>
  <path d="M58.67,18.93a0.34,0.34,0,0,1-.15.38,0.3,0.3,0,0,1-.38-0.2,0.31,0.31,0,0,1,.08-0.26,0.29,0.29,0,0,1,.44.08" style="fill: #010101"/>
  <path d="M73.66,19.16a4.12,4.12,0,0,1-2,1.85c-0.07,0-.13,0-0.16,0,0.56-.6.85-1.52,1.72-1.73a0.53,0.53,0,0,1,.44-0.07" style="fill: #010101"/>
  <path d="M28.89,20c-0.08.07,0,.21-0.16,0.23a0.26,0.26,0,0,1-.34-0.15,0.29,0.29,0,0,1,.21-0.36,0.42,0.42,0,0,1,.29.28" style="fill: #010101"/>
  <path d="M33.62,20.2c0,0.15-.11.15-0.2,0.18a1.79,1.79,0,0,1-1.89-.48,0.12,0.12,0,0,1,.07-0.15,5.37,5.37,0,0,1,2,.45" style="fill: #010101"/>
  <path d="M29.8,20a0.43,0.43,0,0,1,0,.25,0.36,0.36,0,0,1-.41.15,0.53,0.53,0,0,1-.21-0.22,0.39,0.39,0,0,1,.28-0.31,0.49,0.49,0,0,1,.31.13" style="fill: #010101"/>
  <path d="M45.16,20.07a0.29,0.29,0,0,1-.54.18,0.24,0.24,0,0,1,.11-0.31,0.36,0.36,0,0,1,.43.13" style="fill: #010101"/>
  <path d="M74.28,20.13a0.35,0.35,0,0,1-.21.35,0.36,0.36,0,0,1-.31-0.05,0.45,0.45,0,0,1-.08-0.26,0.35,0.35,0,0,1,.38-0.2,2,2,0,0,1,.23.17" style="fill: #010101"/>
  <path d="M75.37,20.07a0.31,0.31,0,0,1-.07.38,0.22,0.22,0,0,1-.29.1,0.53,0.53,0,0,1-.25-0.3A0.38,0.38,0,0,1,75,20a0.66,0.66,0,0,1,.36.1" style="fill: #010101"/>
  <path d="M28.21,20.55a0.6,0.6,0,0,1-.11.28,0.37,0.37,0,0,1-.26.07,0.48,0.48,0,0,1-.25-0.26,0.43,0.43,0,0,1,.29-0.33,0.42,0.42,0,0,1,.33.25" style="fill: #010101"/>
  <path d="M62.74,20.55a0.48,0.48,0,0,1,0,.22,0.31,0.31,0,0,1-.39.16,0.35,0.35,0,0,1-.16-0.35,0.32,0.32,0,0,1,.54,0" style="fill: #010101"/>
  <path d="M30.85,20.8a0.28,0.28,0,0,1-.23.25,0.37,0.37,0,0,1-.28-0.18,0.36,0.36,0,0,1,.13-0.38,0.3,0.3,0,0,1,.38.31" style="fill: #010101"/>
  <path d="M29.27,20.83a0.35,0.35,0,0,1-.16.36A0.39,0.39,0,0,1,28.66,21,0.47,0.47,0,0,1,29,20.58a0.52,0.52,0,0,1,.31.25" style="fill: #010101"/>
  <path d="M63.82,20.8a0.33,0.33,0,0,1-.18.4A0.4,0.4,0,0,1,63.2,21a0.48,0.48,0,0,1,.29-0.35,0.38,0.38,0,0,1,.33.18" style="fill: #010101"/>
  <path d="M30,20.86a0.27,0.27,0,0,1-.08.25,0.53,0.53,0,0,1-.23.07,0.57,0.57,0,0,1-.21-0.23,0.32,0.32,0,0,1,.21-0.31,0.3,0.3,0,0,1,.31.23" style="fill: #010101"/>
  <path d="M73.38,21a0.49,0.49,0,0,1-.28.26,0.45,0.45,0,0,1-.31-0.13,0.27,0.27,0,0,1,0-.3,0.33,0.33,0,0,1,.61.17" style="fill: #010101"/>
  <path d="M74.63,21.06a0.42,0.42,0,0,1-.39.28c-0.15-.07-0.31-0.18-0.2-0.38a0.35,0.35,0,0,1,.2-0.15,0.31,0.31,0,0,1,.39.25" style="fill: #010101"/>
  <path d="M66.84,21.17c0.08,0.22-.11.28-0.25,0.38a0.75,0.75,0,0,1-.31-0.13A0.38,0.38,0,0,1,66.51,21a0.4,0.4,0,0,1,.33.18" style="fill: #010101"/>
  <path d="M62.33,21.37c0.08,0,0,.15,0,0.2a0.34,0.34,0,0,1-.38.13,0.28,0.28,0,0,1-.16-0.31,0.31,0.31,0,0,1,.51,0" style="fill: #010101"/>
  <path d="M63.25,21.49a0.23,0.23,0,0,1-.13.26c-0.11.12-.25,0-0.36-0.05a0.26,0.26,0,0,1,0-.25A0.36,0.36,0,0,1,63,21.32a0.34,0.34,0,0,1,.29.16" style="fill: #010101"/>
  <path d="M35.42,21.51a0.31,0.31,0,0,1,0,.31,0.32,0.32,0,0,1-.41.08,0.34,0.34,0,0,1-.11-0.41,0.56,0.56,0,0,1,.23-0.15,0.57,0.57,0,0,1,.33.16" style="fill: #010101"/>
  <path d="M68.59,21.57a0.26,0.26,0,0,1-.25.26A0.32,0.32,0,0,1,68,21.62a0.72,0.72,0,0,1,.13-0.25,0.41,0.41,0,0,1,.49.2" style="fill: #010101"/>
  <path d="M67.71,21.57a0.33,0.33,0,0,1-.18.33,0.33,0.33,0,0,1-.36-0.07,0.26,0.26,0,0,1-.08-0.25,0.79,0.79,0,0,1,.26-0.21,0.43,0.43,0,0,1,.36.2" style="fill: #010101"/>
  <path d="M75.11,21.77c0,0.23-.26.12-0.38,0.18a2.64,2.64,0,0,1-2.23-.15c0-.21.3-0.13,0.43-0.21,0.71-.45,1.43.1,2.13,0.13Z" style="fill: #010101"/>
  <path d="M30.22,21.57l-0.07.12a2.66,2.66,0,0,1-2.12.38L28,22a3,3,0,0,1,2.2-.45Z" style="fill: #010101"/>
  <path d="M70.27,21.69a0.37,0.37,0,0,1-.16.31,0.33,0.33,0,0,1-.43-0.18,0.28,0.28,0,0,1,.21-0.31,0.37,0.37,0,0,1,.38.18" style="fill: #010101"/>
  <path d="M33.16,21.75a0.44,0.44,0,0,1-.2.33,0.35,0.35,0,0,1-.41-0.21,0.29,0.29,0,0,1,.16-0.31,0.34,0.34,0,0,1,.44.2" style="fill: #010101"/>
  <path d="M32,21.84a0.31,0.31,0,0,1-.08.26,0.3,0.3,0,0,1-.33,0,0.38,0.38,0,0,1-.18-0.4,0.94,0.94,0,0,1,.26-0.18,0.37,0.37,0,0,1,.33.26" style="fill: #010101"/>
  <path d="M71.42,22.22a0.35,0.35,0,0,1-.26.3,0.37,0.37,0,0,1-.31-0.16A0.26,0.26,0,0,1,70.91,22,0.63,0.63,0,0,1,71.12,22a0.35,0.35,0,0,1,.29.26" style="fill: #010101"/>
  <path d="M30.78,22a0.4,0.4,0,0,1-.08.28,2.43,2.43,0,0,1-.36.71,2,2,0,0,1-1.2.5l-0.07-.13A4.31,4.31,0,0,1,30.73,22Z" style="fill: #010101"/>
  <path d="M70.6,22.4c0,0.2-.13.23-0.25,0.31a0.37,0.37,0,0,1-.33-0.2,0.32,0.32,0,0,1,.21-0.33,0.33,0.33,0,0,1,.36.22" style="fill: #010101"/>
  <path d="M32.67,22.4a0.07,0.07,0,0,0,0,.08,0.32,0.32,0,0,1-.61.15,0.28,0.28,0,0,1,.16-0.38,0.35,0.35,0,0,1,.39.15" style="fill: #010101"/>
  <path d="M73.61,22.89c0.16,0,.2-0.22.38-0.25a0.4,0.4,0,0,1,.39.18,0.32,0.32,0,0,1-.21.38c-0.11.08-.36-0.1-0.35,0.12a0.51,0.51,0,0,1,.23.33,0.15,0.15,0,0,1-.2,0,2.07,2.07,0,0,1-1.18-1c-0.07-.15-0.38-0.26-0.2-0.4a1.52,1.52,0,0,1,1.13.64" style="fill: #010101"/>
  <path d="M75.19,22.38a0.25,0.25,0,0,1,0,.31,0.45,0.45,0,0,1-.48.08,0.31,0.31,0,0,1-.13-0.3,0.52,0.52,0,0,1,.25-0.21,0.45,0.45,0,0,1,.38.12" style="fill: #010101"/>
  <path d="M69.23,23.27a2.37,2.37,0,0,1,.36.66,0.16,0.16,0,0,1-.15,0A2.81,2.81,0,0,1,68,22.64a0.41,0.41,0,0,1-.16-0.26,1.53,1.53,0,0,1,1.13.46,1.89,1.89,0,0,1,.31.43" style="fill: #010101"/>
  <path d="M31.75,22.65a0.29,0.29,0,0,1-.15.33,0.38,0.38,0,0,1-.38-0.13c-0.11-.18.1-0.33,0.23-0.4a0.4,0.4,0,0,1,.29.2" style="fill: #010101"/>
  <path d="M71.28,23a0.38,0.38,0,0,1-.16.23,0.39,0.39,0,0,1-.38,0,0.25,0.25,0,0,1,0-.3c0.18-.23.44,0,0.56,0.12" style="fill: #010101"/>
  <path d="M75.37,23.26a0.39,0.39,0,0,1-.23.41,0.43,0.43,0,0,1-.39-0.15,0.35,0.35,0,0,1,0-.31,0.41,0.41,0,0,1,.43-0.12,0.88,0.88,0,0,1,.2.16" style="fill: #010101"/>
  <path d="M64,25.54a1,1,0,0,1-.51.3,3.5,3.5,0,0,1-1.72.25V26A2.44,2.44,0,0,1,64,25.54" style="fill: #010101"/>
  <path d="M40.09,26.25A0.27,0.27,0,1,1,39.78,26a0.38,0.38,0,0,1,.31.25" style="fill: #010101"/>
  <path d="M63.74,26.43a0.47,0.47,0,0,1-.25.38,0.48,0.48,0,0,1-.36-0.12,0.37,0.37,0,0,1,0-.26,0.35,0.35,0,0,1,.66,0" style="fill: #010101"/>
  <path d="M67,26.49a2.69,2.69,0,0,1-1.41.58l-0.89,0L64.63,27A2.71,2.71,0,0,1,67,26.39v0.1Z" style="fill: #010101"/>
  <path d="M35.6,26.89a0.3,0.3,0,0,1-.21.31,0.29,0.29,0,0,1-.21-0.53,0.33,0.33,0,0,1,.43.21" style="fill: #010101"/>
  <path d="M36.42,27.05a0.23,0.23,0,0,1-.07.22,0.27,0.27,0,0,1-.31,0,0.21,0.21,0,0,1-.1-0.28,0.78,0.78,0,0,1,.2-0.15,0.47,0.47,0,0,1,.28.22" style="fill: #010101"/>
  <path d="M30.14,28.72c-0.16.2-.43,0-0.61-0.15-0.57-.33-0.56-1-1.13-1.35,0.07-.2.21,0,0.33,0a2.18,2.18,0,0,0,.34.18,3.89,3.89,0,0,1,1.07,1.34" style="fill: #010101"/>
  <path d="M69.66,27.37s0.1,0.07.07,0.15a3.43,3.43,0,0,1-2.2.69,0.45,0.45,0,0,1-.21,0,0.08,0.08,0,0,1,0-.12,2.5,2.5,0,0,1,2.38-.78" style="fill: #010101"/>
  <path d="M67,27.63a0.36,0.36,0,0,1-.26.45,0.47,0.47,0,0,1-.36-0.26,0.3,0.3,0,0,1,.12-0.28,0.31,0.31,0,0,1,.51.1" style="fill: #010101"/>
  <path d="M35.85,27.67a0.34,0.34,0,0,1-.08.35,0.33,0.33,0,0,1-.3.08,0.33,0.33,0,0,1-.21-0.25,0.36,0.36,0,0,1,.21-0.31,0.38,0.38,0,0,1,.38.13" style="fill: #010101"/>
  <path d="M32.91,28.74v0.12a1.28,1.28,0,0,1-1.07-.25A2.21,2.21,0,0,0,31,27.78c0-.05-0.1-0.12,0-0.15a3.5,3.5,0,0,1,1.93,1.11" style="fill: #010101"/>
  <path d="M72.15,27.65a3.3,3.3,0,0,1-1.38,1.5c-0.12,0-.21.17-0.31,0.05a3,3,0,0,1,1.46-1.57,0.53,0.53,0,0,1,.23,0" style="fill: #010101"/>
  <path d="M36.8,27.85a0.36,0.36,0,0,1-.23.31A0.32,0.32,0,0,1,36.29,28c-0.07-.17.08-0.23,0.16-0.31a0.34,0.34,0,0,1,.34.18" style="fill: #010101"/>
  <path d="M74.22,27.95c-0.15.22-.08,0.53-0.23,0.76a2,2,0,0,1-1.13.89,0.6,0.6,0,0,1,.2-0.48,2.36,2.36,0,0,1,1.08-1.27Z" style="fill: #010101"/>
  <path d="M27.83,28.1a0.33,0.33,0,0,1,0,.36,0.38,0.38,0,0,1-.38.07,0.31,0.31,0,0,1-.13-0.4,0.31,0.31,0,0,1,.51,0" style="fill: #010101"/>
  <path d="M26.89,28.29a0.6,0.6,0,0,1,0,.23,0.39,0.39,0,0,1-.23.2,0.34,0.34,0,0,1-.38-0.21,0.32,0.32,0,0,1,.16-0.35,0.33,0.33,0,0,1,.39.13" style="fill: #010101"/>
  <path d="M28.83,28.39c0,0.13.07,0.36-.13,0.4a0.42,0.42,0,0,1-.49-0.2,0.38,0.38,0,0,1,.2-0.33,0.45,0.45,0,0,1,.43.13" style="fill: #010101"/>
  <path d="M31.52,28.61c0,0.12,0,.28-0.11.31a0.35,0.35,0,0,1-.31,0c0-.1-0.21-0.18-0.11-0.3a0.63,0.63,0,0,1,.23-0.18,0.44,0.44,0,0,1,.31.13" style="fill: #010101"/>
  <path d="M75.79,28.72a0.34,0.34,0,0,1-.25.26,0.42,0.42,0,0,1-.38-0.18,0.26,0.26,0,0,1,.21-0.33,0.38,0.38,0,0,1,.41.25" style="fill: #010101"/>
  <path d="M72.79,28.81a0.36,0.36,0,0,1-.2.28,0.4,0.4,0,0,1-.51-0.25,0.42,0.42,0,0,1,.28-0.3,0.43,0.43,0,0,1,.43.26" style="fill: #010101"/>
  <path d="M74.83,28.77a0.34,0.34,0,0,1-.15.28A0.38,0.38,0,0,1,74.28,29c-0.15-.13,0-0.25.07-0.35a0.33,0.33,0,0,1,.48.13" style="fill: #010101"/>
  <path d="M27.4,29.05a0.35,0.35,0,0,1-.2.41,0.38,0.38,0,0,1-.36-0.23A0.31,0.31,0,0,1,27,28.89a0.37,0.37,0,0,1,.39.16" style="fill: #010101"/>
  <path d="M72,29.23a0.36,0.36,0,0,1-.23.43,0.33,0.33,0,0,1-.31-0.12c-0.07-.08-0.15-0.26,0-0.35a0.32,0.32,0,0,1,.56,0" style="fill: #010101"/>
  <path d="M36.22,29.42c0.07,0.18-.13.21-0.18,0.31a0.22,0.22,0,0,1-.25,0,0.35,0.35,0,0,1-.13-0.35,0.67,0.67,0,0,1,.21-0.17,0.35,0.35,0,0,1,.34.22" style="fill: #010101"/>
  <path d="M75.5,29.53a0.41,0.41,0,0,1-.08.25,0.44,0.44,0,0,1-.38.07,0.35,0.35,0,0,1-.15-0.36,0.8,0.8,0,0,1,.23-0.18,0.38,0.38,0,0,1,.38.23" style="fill: #010101"/>
  <path d="M74.48,29.58a0.29,0.29,0,0,1-.25.35c-0.07,0-.16,0-0.18.07a4.33,4.33,0,0,1,1,.88V31a2.22,2.22,0,0,1-1.62-.63,3.21,3.21,0,0,1-.44-0.2,1.37,1.37,0,0,1,.9-0.15c0.21-.23-0.25-0.4,0-0.59a0.56,0.56,0,0,1,.29-0.08,0.56,0.56,0,0,1,.25.23" style="fill: #010101"/>
  <path d="M67.77,29.6a0.56,0.56,0,0,1-.08.26,0.33,0.33,0,0,1-.36.07,0.43,0.43,0,0,1-.16-0.38,0.34,0.34,0,0,1,.61,0" style="fill: #010101"/>
  <path d="M31.11,30.18a0.31,0.31,0,0,1-.28.26,0.32,0.32,0,0,1-.3-0.2A0.63,0.63,0,0,1,30.62,30a0.3,0.3,0,0,1,.49.2" style="fill: #010101"/>
  <path d="M32.44,30a2.15,2.15,0,0,1-.33.59,1.68,1.68,0,0,1-1.31,1.09,0.91,0.91,0,0,1,.28-0.48A3.4,3.4,0,0,1,32.34,30h0.1Z" style="fill: #010101"/>
  <path d="M67.38,30.19a0.43,0.43,0,0,1-.28.38,0.37,0.37,0,0,1-.34-0.13,0.3,0.3,0,0,1,0-.4,0.41,0.41,0,0,1,.61.15" style="fill: #010101"/>
  <path d="M68.4,30.31a0.41,0.41,0,0,1-.29.36,0.27,0.27,0,0,0-.16,0,0.36,0.36,0,0,1-.21-0.3A0.52,0.52,0,0,1,68,30.11a0.38,0.38,0,0,1,.44.2" style="fill: #010101"/>
  <path d="M35,30.29a0.36,0.36,0,0,1-.25.35,0.32,0.32,0,0,1-.31-0.2,0.4,0.4,0,0,1,.2-0.33c0.2-.07.25,0.08,0.36,0.18" style="fill: #010101"/>
  <path d="M36.11,30.36a0.39,0.39,0,0,1-.31.28,0.38,0.38,0,0,1-.3-0.2,0.38,0.38,0,0,1,.23-0.33,0.35,0.35,0,0,1,.38.25" style="fill: #010101"/>
  <path d="M71.92,31.51a0.32,0.32,0,0,1,.2.26,1.21,1.21,0,0,1-.72-0.23,3.39,3.39,0,0,1-.85-1.32c0.15-.15.31,0,0.44,0.08a3.24,3.24,0,0,1,.94,1.21" style="fill: #010101"/>
  <path d="M72.53,30.36a0.41,0.41,0,0,1,0,.36,0.4,0.4,0,0,1-.46.1,0.32,0.32,0,0,1-.13-0.38,0.48,0.48,0,0,1,.31-0.21,0.65,0.65,0,0,1,.31.13" style="fill: #010101"/>
  <path d="M37.62,30.79a0.36,0.36,0,0,1-.11.41,0.32,0.32,0,0,1-.39-0.2c-0.08-.2.1-0.23,0.2-0.33a0.33,0.33,0,0,1,.31.12" style="fill: #010101"/>
  <path d="M68.35,31.86A2.42,2.42,0,0,1,68.78,33a0.67,0.67,0,0,1,0,.31H68.69a3.7,3.7,0,0,1-1.18-2,0.13,0.13,0,0,1-.07-0.16c0.16-.15.28,0.15,0.44,0.2Z" style="fill: #010101"/>
  <path d="M39.75,31.3a0,0,0,0,0,0,0,2.18,2.18,0,0,1-2.33.3,0.12,0.12,0,0,1,.08-0.15A3.39,3.39,0,0,1,39,31.17Z" style="fill: #010101"/>
  <path d="M36,31.38a6.74,6.74,0,0,1-1.75,1.19c-0.13,0-.21.23-0.38,0.13A2.42,2.42,0,0,1,36,31.25v0.13Z" style="fill: #010101"/>
  <path d="M67.38,32.12a0.26,0.26,0,0,1-.13.35,0.23,0.23,0,0,1-.31,0,0.31,0.31,0,0,1-.15-0.33,0.33,0.33,0,0,1,.59,0" style="fill: #010101"/>
  <path d="M66,32.21a0.92,0.92,0,0,1-.59.43,2.52,2.52,0,0,1-1.56-.2,0.43,0.43,0,0,1,.26-0.17,3.58,3.58,0,0,1,1.67-.08,0.17,0.17,0,0,1,.21,0" style="fill: #010101"/>
  <path d="M36,32.69a0.49,0.49,0,0,1-.2.26,0.34,0.34,0,0,1-.33-0.07,0.29,0.29,0,0,1-.07-0.3,0.34,0.34,0,0,1,.26-0.18,0.35,0.35,0,0,1,.33.28" style="fill: #010101"/>
  <path d="M37,32.84a0.61,0.61,0,0,1-.23.31A0.36,0.36,0,0,1,36.42,33a0.39,0.39,0,0,1,0-.33,0.47,0.47,0,0,1,.23-0.15,0.45,0.45,0,0,1,.38.28" style="fill: #010101"/>
  <path d="M67.07,33a0.44,0.44,0,0,1-.11.31,0.28,0.28,0,0,1-.36.07,0.35,0.35,0,0,1-.2-0.23c-0.1-.13.07-0.22,0.11-0.33a0.36,0.36,0,0,1,.56.18" style="fill: #010101"/>
  <path d="M67.79,33a0.4,0.4,0,0,1,0,.23c-0.1.08-.16,0.3-0.36,0.22a0.24,0.24,0,0,1-.2-0.13,0.31,0.31,0,0,1,.2-0.45,0.38,0.38,0,0,1,.33.13" style="fill: #010101"/>
  <path d="M36.39,33.45a0.45,0.45,0,0,1-.16.45,0.37,0.37,0,0,1-.48-0.18,0.44,0.44,0,0,1,.2-0.48,0.4,0.4,0,0,1,.44.21" style="fill: #010101"/>
  <path d="M37.32,33.38a1.51,1.51,0,0,1-.59,1.29,1,1,0,0,1-.79.13V34.72a17.55,17.55,0,0,1,1.38-1.34" style="fill: #010101"/>
  <path d="M64.49,33.76c0.07,0.1,0,.18-0.1.26A0.34,0.34,0,0,1,64,34a0.25,0.25,0,0,1-.08-0.33,0.33,0.33,0,0,1,.21-0.18,0.45,0.45,0,0,1,.36.23" style="fill: #010101"/>
  <path d="M39,34.52a5.74,5.74,0,0,1,.23,1.3,0.85,0.85,0,0,1-.57-0.45,5.15,5.15,0,0,1-.48-1.73,0.09,0.09,0,0,1,.12,0,4.19,4.19,0,0,1,.62.69,0.83,0.83,0,0,0,.08.22" style="fill: #010101"/>
  <path d="M65.31,33.89a0.42,0.42,0,0,1-.23.25A0.6,0.6,0,0,1,64.77,34a0.27,0.27,0,0,1,.54-0.1" style="fill: #010101"/>
  <path d="M67.27,35.36s0,0.15-.1.12H67.1a2,2,0,0,1-.89-1.57l0.1,0a2.06,2.06,0,0,1,1,1.47" style="fill: #010101"/>
  <path d="M66,34.83a0.38,0.38,0,0,1-.15.31,0.35,0.35,0,0,1-.49-0.22,0.47,0.47,0,0,1,.25-0.33,0.34,0.34,0,0,1,.39.23" style="fill: #010101"/>
  <path d="M65,35.18a4.88,4.88,0,0,1-1.28,1.39,0.23,0.23,0,0,1,0-.25,2.29,2.29,0,0,1,1.26-1.49c0.26,0,0,.21,0,0.35" style="fill: #010101"/>
  <path d="M66.18,35.68A0.47,0.47,0,0,1,66,36a0.48,0.48,0,0,1-.36-0.18,0.31,0.31,0,0,1,.59-0.12" style="fill: #010101"/>
  <path d="M54,5.69a0.41,0.41,0,0,1,0,.82H49.12a0.41,0.41,0,0,1,0-.82H54Zm-3.44.71c0.48,0,0-.58-0.23-0.58H49.84c-0.48,0,0,.58.23,0.58h0.48Zm2,0c0.47,0,0-.58-0.23-0.58H51.83c-0.48,0,0,.58.23,0.58h0.48ZM54,5.82H53.82c-0.48,0-.07.58,0.18,0.58s0.34-.58,0-0.58" style="fill: #010101"/>
  <path d="M53.56,11.27l0.93,0.36,0.91-.36L55,12.64l0.72-.15-0.25.83,0.25,0.8-0.64-.17,0.28,1.47-0.91-.36-0.93.36,0.38-1.47-0.74.21,0.2-.83-0.2-.8,0.71,0.12Zm1.37,2.47c0.21,0,.23-0.29.23-0.54,0-.56-0.45,0-0.67-0.53-0.17.45-.62,0-0.62,0.51s0,0.55.33,0.55h0.75ZM54,13.23c0,0.22.29,0.07,0.5,0.07s0.5,0.14.5-.07-0.29-.2-0.5-0.2-0.5-.11-0.5.2" style="fill: #010101"/>
  <polygon points="51.38 13.28 51.38 13.11 51.23 13.08 51.35 12.95 51.27 12.81 51.43 12.83 51.53 12.66 51.62 12.83 51.78 12.81 51.71 12.95 51.83 13.08 51.67 13.11 51.67 13.28 51.53 13.17 51.38 13.28" style="fill: #010101"/>
  <polygon points="50.66 14.21 50.66 14.04 50.5 14.01 50.63 13.88 50.55 13.74 50.71 13.76 50.81 13.59 50.9 13.76 51.06 13.74 50.99 13.88 51.11 14.01 50.95 14.04 50.95 14.21 50.81 14.1 50.66 14.21" style="fill: #010101"/>
  <polygon points="51.88 14.09 51.88 13.92 51.73 13.89 51.85 13.76 51.77 13.62 51.93 13.64 52.03 13.47 52.13 13.64 52.29 13.62 52.21 13.76 52.33 13.89 52.18 13.92 52.18 14.09 52.03 13.98 51.88 14.09" style="fill: #010101"/>
  <polygon points="52.03 14.79 52.03 14.69 51.94 14.67 52.01 14.6 51.97 14.52 52.06 14.53 52.11 14.44 52.16 14.53 52.26 14.52 52.21 14.6 52.28 14.67 52.19 14.69 52.19 14.79 52.11 14.72 52.03 14.79" style="fill: #010101"/>
  <polygon points="50.89 15.58 50.89 15.28 50.63 15.23 50.83 15.01 50.7 14.78 50.98 14.8 51.14 14.51 51.3 14.8 51.58 14.78 51.45 15.01 51.66 15.23 51.4 15.28 51.4 15.58 51.14 15.39 50.89 15.58" style="fill: #010101"/>
  <polygon points="51.47 0 52.05 1.42 53.51 0.99 52.77 2.33 54.01 3.21 52.51 3.46 52.6 5 51.47 3.97 50.34 5 50.43 3.46 48.93 3.21 50.17 2.33 49.43 0.99 50.89 1.42 51.47 0" style="fill: #010101"/>
  <path d="M46.18,31.85C46,31.92,45.94,32,46,32.14L46.19,33a0.78,0.78,0,0,1-.06.57,1.06,1.06,0,0,1-.59.35,1.2,1.2,0,0,1-.7,0,0.52,0.52,0,0,1-.34-0.44l-0.22-.91c-0.05-.23-0.14-0.21-0.33-0.19l0-.07,1.1-.26,0,0.07c-0.21.06-.31,0.09-0.26,0.33L45,33.36a0.45,0.45,0,0,0,.59.42A0.53,0.53,0,0,0,46,33l-0.2-.83c0-.17-0.1-0.25-0.38-0.19l0-.07,0.72-.17Z" style="fill: #010101"/>
  <path d="M47.81,32a0.7,0.7,0,0,0-.75-0.36,0.31,0.31,0,0,0-.29.34c0,0.15.11,0.19,0.41,0.25l0.52,0.09a0.58,0.58,0,0,1,.47.42,0.69,0.69,0,0,1-.68.75,2.9,2.9,0,0,1-.58,0,0.1,0.1,0,0,0-.08.12l-0.09,0L46.58,33l0.09,0a0.7,0.7,0,0,0,.8.44,0.35,0.35,0,0,0,.34-0.4,0.42,0.42,0,0,0-.44-0.25l-0.24,0c-0.61-.1-0.66-0.34-0.69-0.46a0.61,0.61,0,0,1,.6-0.7,3,3,0,0,1,.53,0,0.1,0.1,0,0,0,.09-0.12l0.1,0L47.9,32Z" style="fill: #010101"/>
  <path d="M50,33.12l-1.19.11V33.16c0.24,0,.32-0.05.3-0.29L48.94,31.4a0.56,0.56,0,0,0-.6.53h-0.1l0-.56,2-.19,0.06,0.56h-0.1a0.55,0.55,0,0,0-.68-0.41l0.14,1.47c0,0.24.1,0.24,0.35,0.23v0.07Z" style="fill: #010101"/>
  <path d="M52.75,33.12H52.07l-0.67-.89H51.3v0.55c0,0.22.07,0.23,0.29,0.26v0.07l-1.13,0V33c0.23,0,.29,0,0.3-0.25l0-1.24c0-.24-0.1-0.25-0.29-0.26V31.17l1.08,0c0.23,0,.94,0,0.93.51a0.55,0.55,0,0,1-.53.47L52.62,33a0.17,0.17,0,0,0,.14.06v0.07Zm-1.45-1c0.44,0,.61-0.05.62-0.42a0.35,0.35,0,0,0-.4-0.41c-0.18,0-.19,0-0.21.11v0.72Z" style="fill: #010101"/>
  <path d="M54.95,33.4l-1.07-.14V33.19c0.21,0,.27,0,0.28-0.07a1.44,1.44,0,0,0-.11-0.39l-0.75-.09a1.69,1.69,0,0,0-.19.34c0,0.11.15,0.13,0.26,0.15V33.2l-0.67-.08V33a0.41,0.41,0,0,0,.37-0.28L54,31.33h0.09l0.56,1.56c0.11,0.32.15,0.42,0.31,0.43V33.4ZM54,32.61l-0.25-.72-0.4.64Z" style="fill: #010101"/>
  <path d="M56.9,33.79L55,33.44V33.38c0.19,0,.29,0,0.32-0.14l0.24-1.34c0-.18-0.1-0.21-0.25-0.25V31.58l1.15,0.21v0.07c-0.23,0-.33,0-0.38.19l-0.24,1.3c0,0.13,0,.17.26,0.21A0.82,0.82,0,0,0,57,33.17l0.1,0Z" style="fill: #010101"/>
  <path d="M58.16,34.08L57,33.84V33.77c0.18,0,.31,0,0.34-0.13l0.28-1.33c0-.18-0.12-0.22-0.26-0.26V32l1.15,0.24v0.07c-0.15,0-.31-0.06-0.35.13L57.9,33.75c0,0.18.09,0.21,0.27,0.26v0.07Z" style="fill: #010101"/>
  <path d="M60.48,34.37l-1.08-.11V34.19c0.21,0,.27,0,0.28-0.08a1.45,1.45,0,0,0-.12-0.39l-0.75-.08a1.62,1.62,0,0,0-.18.34c0,0.11.15,0.13,0.26,0.15v0.07l-0.68-.07V34.07a0.41,0.41,0,0,0,.36-0.29l0.9-1.45h0.09l0.59,1.55c0.12,0.31.16,0.41,0.32,0.43v0.07Zm-0.95-.76-0.27-.71-0.38.65Z" style="fill: #010101"/>
  <path d="M51.93,11.72c0-.67-0.38,0-0.59-0.62-0.15.49-.61,0.08-0.61,0.6a0.41,0.41,0,0,0,.15.38v0.2a0.09,0.09,0,0,0,.09.09h0.72a0.09,0.09,0,0,0,.09-0.09V12.07a0.44,0.44,0,0,0,.15-0.34m-0.58.13c-0.2,0-.46.14-0.46-0.1s0.22-.26.42-0.26,0.5-.07.5,0.26-0.27.1-.46,0.1" style="fill: #010101"/>
  <path d="M57.8,20a0.27,0.27,0,1,0-.31-0.27,0.29,0.29,0,0,0,.31.27" style="fill: #010101"/>
  <path d="M56.35,10a1.7,1.7,0,0,0-.15.29,0.15,0.15,0,1,0,.29,0L56.35,10" style="fill: #010101"/>
  <path d="M46.44,10a1.7,1.7,0,0,0-.14.29,0.15,0.15,0,1,0,.29,0L46.44,10" style="fill: #010101"/>
  <path d="M48.92,10a1.7,1.7,0,0,0-.14.29,0.15,0.15,0,1,0,.29,0L48.92,10" style="fill: #010101"/>
  <path d="M51.39,10a1.7,1.7,0,0,0-.15.29,0.15,0.15,0,1,0,.29,0L51.39,10" style="fill: #010101"/>
  <path d="M53.87,10a1.7,1.7,0,0,0-.14.29,0.15,0.15,0,1,0,.29,0L53.87,10" style="fill: #010101"/>
  <path d="M46.45,13.41a1.7,1.7,0,0,1,.14.29,0.15,0.15,0,1,1-.29,0l0.15-.29" style="fill: #010101"/>
  <path d="M46.45,16.71a1.7,1.7,0,0,1,.14.29,0.15,0.15,0,1,1-.29,0l0.15-.29" style="fill: #010101"/>
  <path d="M46.84,19.33a1.7,1.7,0,0,1,.15.29,0.15,0.15,0,1,1-.29,0l0.15-.29" style="fill: #010101"/>
  <path d="M48.92,20.72a1.7,1.7,0,0,1,.15.29,0.15,0.15,0,1,1-.29,0l0.15-.29" style="fill: #010101"/>
  <path d="M56.47,13.41a1.7,1.7,0,0,0-.14.29,0.15,0.15,0,1,0,.29,0l-0.15-.29" style="fill: #010101"/>
  <path d="M56.47,16.71a1.7,1.7,0,0,0-.14.29,0.15,0.15,0,1,0,.29,0l-0.15-.29" style="fill: #010101"/>
  <path d="M56.08,19.33a1.7,1.7,0,0,0-.14.29,0.15,0.15,0,1,0,.29,0l-0.15-.29" style="fill: #010101"/>
  <path d="M54,20.72a1.7,1.7,0,0,0-.14.29,0.15,0.15,0,1,0,.29,0L54,20.72" style="fill: #010101"/>
  <path d="M51.47,22.19a1.7,1.7,0,0,0-.15.29,0.15,0.15,0,1,0,.29,0l-0.15-.29" style="fill: #010101"/>
  <path d="M55.5,17.26a0.17,0.17,0,0,0,.21,0L55.8,17a0.21,0.21,0,0,0-.18-0.11,1,1,0,0,0-.7.35,0.52,0.52,0,0,0,.25.41c0.09,0,.11.06,0.17,0.11a0.11,0.11,0,0,1-.11.14,2.62,2.62,0,0,1-.65-0.17,0.71,0.71,0,0,0,0-.72s0.09-.09,0-0.14c-0.08-.22-0.31,0-0.45,0a0.59,0.59,0,0,0-.56.28,0.43,0.43,0,0,0,.12.24,0.07,0.07,0,0,1,.11.06l-0.16.09a0.32,0.32,0,0,1,.06.17,0.28,0.28,0,0,1-.27-0.19c0-.13,0-0.35-0.16-0.38a0.66,0.66,0,0,0-.14,0,0.46,0.46,0,0,0-.06.26,1.06,1.06,0,0,0,.06.28,2.71,2.71,0,0,1,.59.58,1.39,1.39,0,0,1-.47.83,0.26,0.26,0,0,0-.09.25l0.08,0.06c0.2-.11.59-0.14,0.56-0.49a1.22,1.22,0,0,1,.3-0.41,0.32,0.32,0,0,1,.36.17,0.62,0.62,0,0,1-.42.47,0.17,0.17,0,0,0,0,.13,0.31,0.31,0,0,0,.33,0A6.57,6.57,0,0,1,55,18.77c0,0.16-.31.2-0.09,0.36A0.45,0.45,0,0,0,55.33,19c-0.11-.27.37-0.39,0.08-0.63,0-.24.25-0.33,0.23-0.58s-0.39-.25-0.47-0.49a0.34,0.34,0,0,1,.33,0" style="fill: #010101"/>
  <path d="M44.12,20.12a0.27,0.27,0,1,0-.31-0.27,0.29,0.29,0,0,0,.31.27" style="fill: #010101"/>
  <path d="M28.06,29.5a0.29,0.29,0,1,0-.3-0.29,0.3,0.3,0,0,0,.3.29" style="fill: #010101"/>
  <path d="M38.28,31.78h0l0,0h0v0h0v0h0s0,0,0,0a0,0,0,0,1,0,0l0,0h0Zm0,0s0,0,0,0h0v0Z" style="fill: #010101"/>
  <path d="M38.32,31.74l0,0h0v0a0,0,0,0,1,0,0h0v0h0a0,0,0,0,0,0,0h0a0,0,0,0,1,0,0,0,0,0,0,1,0,0h0v0h0Z" style="fill: #010101"/>
  <path d="M38.43,31.73h0l0,0h0l0,0,0,0h0l0,0h0v0h0v0h0Z" style="fill: #010101"/>
  <path d="M38.43,31.78a0,0,0,0,0,0,0h0a0,0,0,0,1,0,0,0,0,0,0,1,0,0,0,0,0,0,1,0,0,0,0,0,0,1,0,0h0Zm0,0h0a0.09,0.09,0,0,0,0,0s0,0,0,0,0,0,0,0" style="fill: #010101"/>
  <path d="M38.49,31.74h0v0a0,0,0,0,1,0,0h0v0h0Z" style="fill: #010101"/>
  <path d="M53,22.35l0.14-.07L53,22.35" style="fill: #010101"/>
  <path d="M44.37,34.29l-1.08.12V34.34c0.2,0,.26,0,0.25-0.14a1.45,1.45,0,0,0-.2-0.35l-0.75.09a1.62,1.62,0,0,0-.11.38c0,0.11.17,0.1,0.29,0.09v0.07l-0.68.08V34.48a0.41,0.41,0,0,0,.29-0.36L43,32.5H43L44,33.87c0.18,0.28.25,0.37,0.41,0.35v0.07Zm-1.09-.54-0.41-.64-0.23.71Z" style="fill: #010101"/>
  <path d="M63.3,30.19a1.73,1.73,0,0,0-1.12-1,1.44,1.44,0,0,0-1.43.36c-0.59.48-.18,1.27-0.16,1.92a0.26,0.26,0,0,1-.11.3c-2.38-.21-4.59-0.81-7-1.06-0.54-.09-1.09-0.07-1.6-0.18l-0.66-.07a27.83,27.83,0,0,0-6,.68c-0.41.13-.87,0.17-1.28,0.31a7.33,7.33,0,0,1-.82.08l-0.54.13a0.46,0.46,0,0,1-.18,0c-0.26-.68.52-1.09,0.28-1.75a1.2,1.2,0,0,0-1.13-.68,1.37,1.37,0,0,0-1.31.68c-0.38.83,0.1,1.68,0.25,2.49a0.92,0.92,0,0,1,0,.78,2.25,2.25,0,0,0-1.85-.38A1,1,0,0,0,38,33a4.7,4.7,0,0,0,2.39.3,0.22,0.22,0,0,1,.25,0,3.28,3.28,0,0,0,.18,1.39,1.69,1.69,0,0,0,1.26.54,19.61,19.61,0,0,0,4.23-.84c0.21,0,.38-0.13.61-0.13a12,12,0,0,1,2.33-.31,4.11,4.11,0,0,0-.69,1.49c-0.2.45,0.34,0.51,0.51,0.76a13,13,0,0,0-1.34.69,18.53,18.53,0,0,0-2.92.48,2.63,2.63,0,0,0,.38.36,0.59,0.59,0,0,1-.31.25c0,0.1,0,.12.1,0.13s0.31,0,.41-0.15c0.33,0,.61-0.1.92-0.11a3.1,3.1,0,0,0,.84-0.33c0.34-.1.56-0.33,0.9-0.43s0.93-.16,1.39-0.2V37c-0.38.61-.77,1.24-1.16,1.82a0.19,0.19,0,0,0,.11.26,0.85,0.85,0,0,0,.64-0.1c0.34-.59.66-1.16,0.94-1.77a2.39,2.39,0,0,1,.94-1.24c0.07,0,.16-0.13.23,0a7.54,7.54,0,0,0-.79,1.16,1.39,1.39,0,0,0,.25,1.44,1.26,1.26,0,0,0,.75.13c0.64-.33,1.46.2,2-0.43,0.29,0,.34.3,0.51,0.46a1,1,0,0,0,.85.16,1.55,1.55,0,0,0-.31-0.51c-0.2-.35-0.44-0.63-0.62-0.94a3.24,3.24,0,0,1-.26-0.61,5.16,5.16,0,0,0,.89.35,5.39,5.39,0,0,1,.88.26A3,3,0,0,0,56,38c0.41,0.2.87,0.23,1.29,0.4a0.58,0.58,0,0,0,.53,0,0.68,0.68,0,0,0-.25-0.18c0-.22.3-0.1,0.41-0.26a0.23,0.23,0,0,0-.19-0.12c-0.23-.13-0.82-0.17-1-0.26a3.83,3.83,0,0,1-.57-0.18c-1,0-1.53-.89-2.31-1.22a2,2,0,0,0,.57-0.54,0.92,0.92,0,0,0,0-.88c-0.15-.51-0.8-0.45-1.18-0.73l0,0a6.87,6.87,0,0,1,1.77.23A39.55,39.55,0,0,0,59.9,35c0.9,0,2,0,2.48-.83,0.08-.51.18-1,0.26-1.54a7.71,7.71,0,0,0,.66-2.49M45.59,37.72l-0.23-.21a1.61,1.61,0,0,1,.54-0.17,2.84,2.84,0,0,1,1.39-.2,4,4,0,0,1-1.71.58m10.24-.26a7.17,7.17,0,0,0,1.75.41c-0.05.22-.45,0-0.4,0.33a3.83,3.83,0,0,1-1.48-.69,0.16,0.16,0,0,1,.13,0m-15.39-7a1.19,1.19,0,0,1,.39-0.83,1.38,1.38,0,0,1,1.3,0,0.63,0.63,0,0,1,.26.31,0.74,0.74,0,0,1-.25.74H42a1.82,1.82,0,0,1,.1-0.74,0.41,0.41,0,0,0-.31-0.3,1,1,0,0,0-.74.16,0.75,0.75,0,0,0-.21.73,2.63,2.63,0,0,1,.08.63l0,0.07a1,1,0,0,1-.41-0.83m0.77,0.47a2,2,0,0,0,.89.15,0.62,0.62,0,0,1-.08.56,1.06,1.06,0,0,1-.79-0.3c0-.12,0-0.28,0-0.41m0-.55c0-.13,0-0.33.18-0.36s0.29,0,.31.1a3.23,3.23,0,0,1-.08.58,0.38,0.38,0,0,1-.41-0.31m7.69,5.3a1.79,1.79,0,0,1,.53-1.49,1,1,0,0,1,.7,0A1.16,1.16,0,0,0,49,35a1.05,1.05,0,0,0,0,.51,3.54,3.54,0,0,0,.82.43,0.21,0.21,0,0,1-.15.2,6.32,6.32,0,0,1-.89-0.45M48.26,36.8a1.84,1.84,0,0,1,1.25-.36,2.26,2.26,0,0,1-1.25.36M49.82,37a12.81,12.81,0,0,1-.8,1.55,0.33,0.33,0,0,1-.26.12A1.59,1.59,0,0,1,49.08,38c0.35-.45.44-0.92,0.84-1.35,0.1,0.1-.1.16-0.1,0.3m0.41-1v0.07h0V36h0.07a0.1,0.1,0,0,0-.07,0h0Zm-0.15-.45a3.94,3.94,0,0,1-.79-0.2,0.6,0.6,0,0,1,0-.53,0.84,0.84,0,0,1,1.2-.22,1.75,1.75,0,0,1-.41.94m0.36,0a2.78,2.78,0,0,1,.26-0.69,1.38,1.38,0,0,1-.26.69m0.18-1.34a2.61,2.61,0,0,0-.56-0.3,1.31,1.31,0,0,1,.62,0,0.36,0.36,0,0,1-.07.31m0.2,0.5h0V34.54h0v0.18Zm0,0.76a0.66,0.66,0,0,1,.05-0.23c0.08-.08.16,0.07,0.2,0.12a0.24,0.24,0,0,1-.25.11m0.25-1a1.83,1.83,0,0,1,.25-0.61,1,1,0,0,1,.44.07c0,0.33.44,0.78,0,1.06a0.47,0.47,0,0,1-.52.07,0.46,0.46,0,0,1-.16-0.58m1.2-.46c0-.15.15,0,0.21-0.1l0.51,0c-0.26,0-.59.58-0.72,0.07m0.82,0.21c-0.2.07-.34,0.3-0.54,0.35a0.67,0.67,0,0,1,.54-0.35m-0.69,1.07h0V35.23h0v0.05Zm0,1a0.16,0.16,0,0,1,0,.12L52,36.06a0.4,0.4,0,0,1,.41.18M52,35.73a0.12,0.12,0,0,1,.15,0H52Zm-0.23-.25A0.43,0.43,0,0,1,52,35.23a0.09,0.09,0,0,0,0,0,0.83,0.83,0,0,1-.29.2m-0.38,0H51.33l0.1-.1s0,0.07,0,.1m0,0.63c0.21-.23.41,0.13,0.49,0.31,0.25,0.36.88,0.69,0.64,1.19-0.31.28-.8,0-1.15,0.23a0.72,0.72,0,0,1-.59-0.15,9.59,9.59,0,0,1,.61-1.59M51,36.39l0.08-.13a6.93,6.93,0,0,1-.54,1.19A1.85,1.85,0,0,1,51,36.39m0.72,2a1.45,1.45,0,0,1-1.08-.07c0-.13-0.13-0.2-0.11-0.33a1.39,1.39,0,0,0,.74,0,6.67,6.67,0,0,1,1.15,0c0.18,0,.46-0.3.49,0-0.13.54-.79,0.16-1.18,0.33m1-2.43h0v0h0v0ZM52.75,37c0,0.16.18,0.23,0.08,0.38A0.5,0.5,0,0,1,52.75,37m0.46,1-0.08,0a0.42,0.42,0,0,1,0-.35,0.26,0.26,0,0,1,.11.31M54,38.4a0.09,0.09,0,0,1-.13,0,8.78,8.78,0,0,1-1-2l0.07,0c0.39,0.64.71,1.35,1.1,2m0.61-1.52a0.07,0.07,0,0,0,0,.07,1.88,1.88,0,0,1-1.15-.51l0-.08a3.12,3.12,0,0,1,1.2.53m-0.43-2.2a0.41,0.41,0,0,1,.23.43,0.88,0.88,0,0,1-.56.81,0.87,0.87,0,0,1-.64.07,1,1,0,0,0,1-.56Zm-0.36-.07a1.11,1.11,0,0,1,.15.73,1,1,0,0,1-.79.38,0.52,0.52,0,0,1-.38-0.12,0.17,0.17,0,0,0-.07-0.16c0-.21-0.38-0.43-0.08-0.61s0.88-.81,1.16-0.22m8.33-1.21A3.32,3.32,0,0,1,62,34a0.68,0.68,0,0,1-.46.56c-2,.43-3.87-0.23-5.76-0.56a20.05,20.05,0,0,0-8.41-.13c-1.26.23-2.49,0.53-3.71,0.88a5.38,5.38,0,0,1-2.3,0c-0.59-.28-0.34-1-0.53-1.57A8.61,8.61,0,0,0,40.72,32a1,1,0,0,1-.07-0.43c0.25,0,.49.21,0.75,0.28a10.21,10.21,0,0,0,3.89-.41,28.45,28.45,0,0,1,3.79-.58,24.3,24.3,0,0,1,4.4.15c0.46,0,.85.13,1.3,0.17,0.92,0.12,1.77.36,2.71,0.43a4.46,4.46,0,0,0,.49.08c1.47,0.23,3.13.64,4.54,0a12.18,12.18,0,0,1-.33,1.72m-0.46-2c0,0.26-.23.2-0.36,0.3H61a0.9,0.9,0,0,1,0-.46,3.31,3.31,0,0,1,.8.16M61.54,31c0.18-.18,0-1.22.46-0.55a0.51,0.51,0,0,1-.11.43,0.31,0.31,0,0,1-.34.12m1.33-.17a0.94,0.94,0,0,1-.7.56,2.88,2.88,0,0,0,.25-1.12,1,1,0,0,0-1-.33,0.59,0.59,0,0,0-.13.41l-0.07.54c-0.33,0-.34-0.3-0.44-0.53a1,1,0,0,1,.51-0.86,1.13,1.13,0,0,1,1,0,0.74,0.74,0,0,1,.54.35,1.05,1.05,0,0,1,.13.94" style="fill: #010101"/>
  <path d="M77.94,22.31a1.31,1.31,0,0,0-1.23-.68,1.13,1.13,0,0,0-.92.68,0.84,0.84,0,0,0,.31.91,0.25,0.25,0,0,0,.33-0.08c0.08-.22-0.15-0.22-0.18-0.38a0.55,0.55,0,0,1,.18-0.58,0.85,0.85,0,0,1,.64-0.08,1.15,1.15,0,0,1,.49.48,1.33,1.33,0,0,1,0,.88,1.47,1.47,0,0,1-1,.83c-1.36.2-16.3,0.13-16.3,0.13-1.75.17-3.75-.33-5.26,0.6a2.6,2.6,0,0,0-1.21,1.77,11.89,11.89,0,0,0-1.28,1.3l0,0c0.08-.4.26-0.74,0.34-1.14a6.72,6.72,0,0,0,.43-1.14A9.09,9.09,0,0,1,55.39,23a2,2,0,0,1,1.75-.45,4.35,4.35,0,0,0,2.28.33,0.15,0.15,0,0,0,0-.12c-0.23-.22-0.61-0.3-0.87-0.51-0.66-.31-1.28.1-2,0a0.09,0.09,0,0,1,0-.1,9.71,9.71,0,0,1,2-1.09,14,14,0,0,1,1.79-.71,1.17,1.17,0,0,1,.7-0.07,11.82,11.82,0,0,1-1.69,2.79c-0.25,0-.39.26-0.64,0.28a0.92,0.92,0,0,1-.56.12c-0.51.22-1.23,0.08-1.57,0.56a0.23,0.23,0,0,0,.13.08c1,0,2.12.08,3.18,0a0.4,0.4,0,0,0,.26-0.31,0.74,0.74,0,0,1,.18-0.74c0.08-.4.34-0.64,0.46-1,0.34-.68.74-1.34,1.11-2a0.16,0.16,0,0,0,.13,0,9,9,0,0,1,2.51,0l0.12,0.1a11.75,11.75,0,0,1-.15,2.4c-0.28,1-1.38.86-2.17,1.07-0.2.13-.57,0.07-0.57,0.4a14.63,14.63,0,0,0,3.08.07,0.63,0.63,0,0,0,.28-0.36,1.45,1.45,0,0,0,.18-0.63,2.06,2.06,0,0,1-.06-0.91,0.51,0.51,0,0,0,0-.31c0.13-.48.1-1.06,0.2-1.52,0.3,0,.43.38,0.74,0.4,0.16-.23-0.18-0.33-0.26-0.48a1.81,1.81,0,0,1,1.1.17l-0.16.18a0.27,0.27,0,0,0,.2.38A0.4,0.4,0,0,0,67.41,21c0.21-.15,0-0.3,0-0.43a15.63,15.63,0,0,1,3.49,1,2.8,2.8,0,0,0,1,.31,4.34,4.34,0,0,0-1.25-.66,3.64,3.64,0,0,1-.89-0.41A1.33,1.33,0,0,1,70,20.68a2.44,2.44,0,0,0,1.43-.92,0.45,0.45,0,0,0,.2-0.2,0.82,0.82,0,0,0-.59,0c-0.69.13-1,.94-1.67,1.09-0.84-.2-1.69-0.4-2.52-0.61a5.12,5.12,0,0,1-1.23-.26,8.09,8.09,0,0,1,.11-0.91,0.61,0.61,0,0,0,.07-0.35,0.85,0.85,0,0,1,.16-0.16l0.34-.16a4.15,4.15,0,0,1,1.31,0,3.47,3.47,0,0,0,.82.18,0.6,0.6,0,0,1,.41-0.08C69.35,18.05,69,17.44,69,17a10.81,10.81,0,0,0,1.25-1.35,0.31,0.31,0,0,0-.18-0.31,0.27,0.27,0,0,0-.33.07c-0.2.15,0,.33,0,0.51a2.77,2.77,0,0,1-.75.64l-0.14.05,0-.1a1.83,1.83,0,0,1-.13-0.33c-0.1-.12-0.16-0.33-0.26-0.45A6.6,6.6,0,0,0,67.17,14a6.92,6.92,0,0,0-3.46-2.13c-1.29-.45-2.61.13-3.77,0.54a0.94,0.94,0,0,1-.64-0.69,3.28,3.28,0,0,1,.31-1.75,6.51,6.51,0,0,1,.44-1.11A11.76,11.76,0,0,0,60.72,6a1.49,1.49,0,0,0-.89-1.3,0.89,0.89,0,0,0-.9.18,2.39,2.39,0,0,1-1.07,1c0,0.28.31,0.1,0.43,0.2a2.28,2.28,0,0,1,1.07.18,2.8,2.8,0,0,1-.69,1.7,13.1,13.1,0,0,0-1.49,2.58h0V9.62H49.39a3.92,3.92,0,0,0-1.13-.54c-0.92-.36-1.53.59-2.46,0.48a0.61,0.61,0,0,0-.15.26,0.15,0.15,0,0,1-.18,0c0-.4-0.18-0.76-0.23-1.14-0.1-.16-0.05-0.4-0.13-0.56-0.52-1.44,1.28-.35,1.64-1.19s-0.61-.81-0.89-1.32V5.37a2.58,2.58,0,0,1-.71-0.69,2.39,2.39,0,0,0,0-1.27A0.18,0.18,0,0,0,45,3.22c-0.31.43-.54,0.78-0.84,1.19a8.76,8.76,0,0,0-1-.73,1.5,1.5,0,0,0-.75-0.18,0.23,0.23,0,0,0,0,.25,2.37,2.37,0,0,0,.8,1.62l0,0.25A7.45,7.45,0,0,0,43,7.8a12.1,12.1,0,0,1-3.56,5c-0.93,1.06-2,2.08-2.2,3.53a1.16,1.16,0,0,1-.15.68,5.65,5.65,0,0,1-1.53-.81c-0.75-.53-1.84-0.46-2.33-1.42a1,1,0,0,1,.23-1,1.91,1.91,0,0,0,.18-2.11,0.22,0.22,0,0,0-.13.08c0,1-.82,1.65-0.53,2.73,0.07,0.31.23,0.51,0.31,0.81A2.51,2.51,0,0,1,33,15.16a4.08,4.08,0,0,0-1.1-.15c-0.75.35-1.79-.08-2.39,0.61-0.1,0-.23,0-0.2.18,0.36,0,.7.1,1.07,0.08a2.07,2.07,0,0,0,1.34-.6h0.1a1.09,1.09,0,0,1,.66-0.1,6.58,6.58,0,0,1,2.69,1.12v0.07c-0.33.15-.7,0.25-1,0.43a2.22,2.22,0,0,0-.92,1.11A1.1,1.1,0,0,0,33.42,19a0.48,0.48,0,0,0,.18.43c0.53-.56,0-1.26.11-1.9a1.34,1.34,0,0,1,1.07-.86c0.93-.4,1.61.36,2.36,0.79a11.23,11.23,0,0,1-.08,2.23,2,2,0,0,1-.77.12,14,14,0,0,0-3.48,1.21c-0.52.18-1.15,0.16-1.67,0.36a4.07,4.07,0,0,0,1.26,0C34,21.14,35.24,19.9,37,20.12l0,0a3.87,3.87,0,0,1-.77,1.07A0.59,0.59,0,0,0,36,20.81a0.3,0.3,0,0,0-.38.13,0.23,0.23,0,0,0,0,.25,0.54,0.54,0,0,0,.36.23,1.23,1.23,0,0,1-.31.35c-0.46.78-1.39,0.46-1.94,1-0.08.12-.38,0.18-0.25,0.36a2.46,2.46,0,0,0,1.69-.43c0.61-.68,1.25-1.32,1.85-2a2,2,0,0,1-.36,1.5A2,2,0,0,0,36.24,22a0.4,0.4,0,0,0-.29.33,1,1,0,0,0,.25.33,5.83,5.83,0,0,1-1.9.61,32.2,32.2,0,0,1-3.57.26,7.88,7.88,0,0,1-1.77,0,4.57,4.57,0,0,0-1.8.26,0.33,0.33,0,0,0,0,.25c0.75,0.5,1.79.1,2.64,0.25h6.46A2.89,2.89,0,0,0,37.58,24a4.8,4.8,0,0,0,1.72-2.18,3.38,3.38,0,0,0,.34-1,1.43,1.43,0,0,1,1.23-1,7.52,7.52,0,0,1-.28,2.51,2.85,2.85,0,0,0-.23,1.6,0.5,0.5,0,0,0,.54.3c2,0,4-.12,6.07,0a4.9,4.9,0,0,0,1.12.16s0.15-.07.1-0.16a0.62,0.62,0,0,0-.39-0.46,0.63,0.63,0,0,0-.23-0.13c-1-.6-2.31-0.28-3.54-0.26a2.63,2.63,0,0,1-1.82-.18A2.2,2.2,0,0,1,42.14,22a12,12,0,0,1,.51-1.8,11.94,11.94,0,0,1,1.73.89,12.22,12.22,0,0,1,6.35,6.44,0.84,0.84,0,0,1,.07.56,9,9,0,0,0-1.25-1.26A2.41,2.41,0,0,0,48.31,25a1.94,1.94,0,0,0-1.18-.51l-6,0c-4.85-.07-9.28.15-14.1,0.07a1.76,1.76,0,0,1-1.69-1,1.09,1.09,0,0,1,0-.91,1,1,0,0,1,.84-0.45,0.88,0.88,0,0,1,.56.46,1.61,1.61,0,0,1-.26.59c0,0.07.08,0.2,0.2,0.15a0.77,0.77,0,0,0,.43-0.53,0.36,0.36,0,0,0,0-.36,1.1,1.1,0,0,0-.77-0.68,1.29,1.29,0,0,0-1.38,1.77,2.22,2.22,0,0,0,1.77,1.32l16,0.07a34.5,34.5,0,0,1,4.89.13,1.89,1.89,0,0,1,1.33,1.26,0.13,0.13,0,0,1-.12,0,7.1,7.1,0,0,0-4.66-1,5.69,5.69,0,0,0-1.84.38,0.93,0.93,0,0,1-.8-0.26,2.72,2.72,0,0,0-2.38-.3,0.13,0.13,0,0,0,0,.12c0.8-.07,1.28.63,2,0.71a0.68,0.68,0,0,1,.44,0,14.87,14.87,0,0,1-2.28,1,1.75,1.75,0,0,1-.57-0.41,1.86,1.86,0,0,0-1.31-.23,1.48,1.48,0,0,0-.38,0,1.4,1.4,0,0,0,.71.55,7.69,7.69,0,0,1,1.26.23,1.62,1.62,0,0,1-.34.23c-0.77.3-1.41,1-2.26,0.94a2.92,2.92,0,0,1-2.43-.79,1.65,1.65,0,0,0-1.66-1s-0.11,0-.1.12c0.36,0.22.64,0.64,1,.89s0.67,0,.89.31a2.92,2.92,0,0,0,1.07.46,4.64,4.64,0,0,0,.85.23l-0.11.07A14,14,0,0,1,31,29.2c-0.49,0-1-.17-1.46-0.15a0.92,0.92,0,0,0,.39.23,1,1,0,0,1-.44.13,2.93,2.93,0,0,0-.62.16,1.64,1.64,0,0,0-.7.17,3.34,3.34,0,0,1-.93.76c0,0.07,0,.17.07,0.17,0.31-.13.7,0,1-0.17a3.6,3.6,0,0,0,1.28-.89,2.16,2.16,0,0,1,1.67-.2c0.33,0.08,0,.21.07,0.43a0.46,0.46,0,0,0,.43.2A0.29,0.29,0,0,1,31.85,30a0.38,0.38,0,0,0,0-.41,4.12,4.12,0,0,1,.79-0.08c0.62,0,1.25-.15,1.85-0.16a0.3,0.3,0,0,1,.31,0c0,0.13-.21.15-0.15,0.33a0.4,0.4,0,0,0,.33.25,0.32,0.32,0,0,0,.25-0.4A0.39,0.39,0,0,0,35,29.28c0.35-.17.74-0.22,1.08-0.38a3.07,3.07,0,0,0,.69-0.23,1.33,1.33,0,0,1,.59-0.13,3.4,3.4,0,0,1-.35.79,4,4,0,0,0,0,2.87,0.11,0.11,0,0,0,.1,0,4,4,0,0,1,.15-2.71c0.23-1.4,1.67-1.82,2.71-2.35l0,0.07a5.14,5.14,0,0,0-.62,2.3,1.52,1.52,0,0,0,0,.4A1.74,1.74,0,0,0,40,29.12c0.11-.74-0.31-1.67.44-2.21a11.53,11.53,0,0,1,4.16-1.24s0.16,0,.18.07a4,4,0,0,0-1,1.16,3.73,3.73,0,0,0-.28,2.86A1.55,1.55,0,0,1,43,30.94c-0.1.14-.13,0.38-0.23,0.54l0.32,0a1.76,1.76,0,0,0,.56-1.09,0.45,0.45,0,0,0,.31.33,0.7,0.7,0,0,0-.11-0.5c0.26-.15.38,0.18,0.59,0.25a4.18,4.18,0,0,0,1,.23l0.12-.11a2,2,0,0,0-1.71-.69A3.31,3.31,0,0,1,43.6,28a2.87,2.87,0,0,1,.33-1,2.61,2.61,0,0,1,.46-0.65,1.75,1.75,0,0,1,1-.59h0l0,0.08a3.73,3.73,0,0,0-.75,1.27,1.39,1.39,0,0,0-.15,1.44,1.3,1.3,0,0,0,.28.7,3.66,3.66,0,0,0,.34-1,2.4,2.4,0,0,1-.07-1.58A1.35,1.35,0,0,1,46,25.95a5.08,5.08,0,0,1,2.48.73,0.85,0.85,0,0,1,.48.45,1.41,1.41,0,0,1-.61,1.11,1.39,1.39,0,0,1-1.49,0,1.14,1.14,0,0,1-.26-1,0.68,0.68,0,0,1,.72-0.26,0.56,0.56,0,0,0,.53.15,0.21,0.21,0,0,0,.07-0.26,1.42,1.42,0,0,0-.49-0.38,1.07,1.07,0,0,0-.9.18,1.17,1.17,0,0,0-.38,1.16,1.41,1.41,0,0,0,1,1.06,1.9,1.9,0,0,0,2-.69,2.25,2.25,0,0,0,.36-0.71,4.29,4.29,0,0,1,1.69,2.18,3.52,3.52,0,0,1,0,.83l0.57,0a0.55,0.55,0,0,1,0-.4,5,5,0,0,1,1.69-2.71c0.28-.16.21,0.21,0.28,0.33A2.21,2.21,0,0,0,55.28,29a1.8,1.8,0,0,0,1.77-.58A1.23,1.23,0,0,0,57.16,27a1.13,1.13,0,0,0-.9-0.43,1.11,1.11,0,0,0-.9.61,0.36,0.36,0,0,0,.1.35,0.25,0.25,0,0,0,.25-0.08,0.77,0.77,0,0,1,.44-0.5,0.51,0.51,0,0,1,.52.1,0.86,0.86,0,0,1,.23.64,1,1,0,0,1-.54.78,1.67,1.67,0,0,1-1.57-.15,3.63,3.63,0,0,1-.46-0.73,1.2,1.2,0,0,1,0-.76A5.55,5.55,0,0,1,56.67,26a1.67,1.67,0,0,1,.87.54c0.75,0.78-.16,1.88.36,2.74a0.61,0.61,0,0,0,.28-0.46A2.92,2.92,0,0,0,58,27a3.41,3.41,0,0,0-.62-1,0.41,0.41,0,0,1,.2,0,4.05,4.05,0,0,1,1,.86,4.44,4.44,0,0,1,.64,2.71,1.63,1.63,0,0,1-1.07.91,1.54,1.54,0,0,0-.44.53,0.81,0.81,0,0,0,.67-0.08,2.85,2.85,0,0,0,.71-0.69,0.17,0.17,0,0,1,0,.1c0,0.18-.08.43,0.08,0.48A6,6,0,0,0,59.31,30a1.65,1.65,0,0,1,.31.83,1.18,1.18,0,0,0,.79.74,0.49,0.49,0,0,0,0-.43,2,2,0,0,0-.62-0.92c-0.57-.79-0.31-2-0.75-2.92A3.46,3.46,0,0,0,58.1,26L58.17,26a9.7,9.7,0,0,1,2.21.4c0.9,0.45,2.21.35,2.64,1.52A4.35,4.35,0,0,0,64,29.68l0,0A0.67,0.67,0,0,0,64,29c-0.1-.83-0.82-1-1.2-1.72l0.05-.07a11,11,0,0,1,1.2.38,3.53,3.53,0,0,1,2.39,3,6.47,6.47,0,0,1-.61,2.82c-0.05.13-.28,0.28-0.13,0.4a1.49,1.49,0,0,0,.31-0.5A4.6,4.6,0,0,0,66.56,30a1,1,0,0,1-.15-0.59,0.52,0.52,0,0,0,.28.15A0.74,0.74,0,0,0,67,29.4a0.32,0.32,0,0,0,0-.3A0.45,0.45,0,0,0,66.53,29a0.78,0.78,0,0,0-.2.36,3.42,3.42,0,0,0-.59-0.87l0-.05c0.74,0.25,1.41.61,2.16,0.81a1.08,1.08,0,0,0,.57.18,17.63,17.63,0,0,0,2.09.51,10.81,10.81,0,0,0,1.47.07v0L72,30a3.31,3.31,0,0,0-.82-0.18A12.49,12.49,0,0,1,67.91,29S68,29,68,29a0.43,0.43,0,0,0,.26-0.41,0.45,0.45,0,0,0-.38-0.18,0.46,0.46,0,0,0-.25.28,0.41,0.41,0,0,0,.25.31,0.22,0.22,0,0,1-.15,0l-1.49-.68c-0.18,0-.33-0.18-0.51-0.22-0.38-.18-0.75-0.36-1.13-0.51a26,26,0,0,0-3.33-1.24l-0.71-.2-1.23-.33a6.23,6.23,0,0,0-4.48.38c-0.2-.07-0.31.25-0.41,0A2.31,2.31,0,0,1,56.72,25c6.58-.07,12.74-0.12,19.22-0.22a2.07,2.07,0,0,0,1.89-.94,1.66,1.66,0,0,0,.12-1.52M64.71,19.09l0,0.46H63s-0.07,0,0,0c0.59-.15,1.1-0.5,1.69-0.64ZM63,18.37a2.11,2.11,0,0,0,.29-0.45,0.42,0.42,0,0,0-.16-0.35,0.81,0.81,0,0,1,.44-0.12,1.86,1.86,0,0,1,.92,1.09,11.3,11.3,0,0,1-2,.74A5.78,5.78,0,0,1,63,18.37M57.2,14.46a4.6,4.6,0,0,0,2.15,2.19,1.72,1.72,0,0,0,1.89.56c0.38-.12.41,0.41,0.59,0.63,0.2,0.61-.25,1-0.28,1.6a0.63,0.63,0,0,1-.41.38,4,4,0,0,1-.75.21,16.71,16.71,0,0,0-6,3.39,1.86,1.86,0,0,0,.16-0.69A1.37,1.37,0,0,0,54.33,22a1.08,1.08,0,0,1-.12-0.44l2.05-1.3a2.09,2.09,0,0,0,.9-1.91Zm-11.13,1.8a0.08,0.08,0,0,0,.13,0,1.48,1.48,0,0,0,.29-1.34,2.18,2.18,0,0,0-.41-1.21l0,0V9.93h1.79a1.48,1.48,0,0,0,.4.17l0.12-.17h8.48v8.54A2,2,0,0,1,56.1,20L51.8,22.73h0a0.53,0.53,0,0,1-.33.12,0.53,0.53,0,0,1-.34-0.12L46.8,20a2,2,0,0,1-.74-1.52V16.26Zm-1-4.07a1.34,1.34,0,0,1,.56-0.94,0.17,0.17,0,0,1,.08.12h0v1.8c-0.16-.32-0.81-0.57-0.65-1m3.11,10.88v0a26.78,26.78,0,0,0-5.41-3.28c0.17-.49.32-0.9,0.36-1a2.84,2.84,0,0,0,.1-0.76,3.21,3.21,0,0,0,.1-1.12,7.71,7.71,0,0,1,.51-1.54c0.1-.25.18-0.51,0.28-0.76a2.47,2.47,0,0,1,.33-0.86,2.7,2.7,0,0,1,1.27.85v3.69a2.09,2.09,0,0,0,.9,1.91l1.76,1.12c0,0.57-.2,1.08-0.2,1.69m3.66,5.33a1.5,1.5,0,0,0-.18.58l-0.07,0c0-.25-0.2-0.4-0.13-0.66-0.13-.2-0.13-0.45-0.25-0.66s0.13-.38.25-0.56a1.44,1.44,0,0,1,.48.51,2.36,2.36,0,0,1-.1.76m-0.1-1.59a5.5,5.5,0,0,0,1.16-2.41c0.11-.08,0-0.3.15-0.4a1.94,1.94,0,0,0,0-.74c0.1-.36-0.48-0.69-0.11-0.92l-0.25.15c-0.7.92,0.14,2.31-.38,3.2v0.07a4.31,4.31,0,0,0-.71.79,2.24,2.24,0,0,1-.8-0.94,1.47,1.47,0,0,1-.16-1.54,3,3,0,0,0-.16-1.32l-0.17-.1a1.91,1.91,0,0,0-.23,1.93,3.86,3.86,0,0,0,.43,1,5.37,5.37,0,0,0,.7,1.22c0.07,0.16-.1.2-0.18,0.28-0.18-.12-0.15-0.38-0.31-0.5a12,12,0,0,0-2.1-3,0.62,0.62,0,0,1-.1-0.45,1.21,1.21,0,0,0,.21-1.26,0.61,0.61,0,0,1-.11-0.26l-0.2-.15L51,23.05a0.53,0.53,0,0,0,.76,0L54,21.72a2.27,2.27,0,0,0-.12,1.39,1.06,1.06,0,0,1,.07.91,15.21,15.21,0,0,0-1.75,3.2,0.57,0.57,0,0,1-.38-0.4" style="fill: #010101"/>
</svg>