<?xml version="1.0" encoding="utf-8"?>
<!-- Generator: Adobe Illustrator 18.1.0, SVG Export Plug-In . SVG Version: 6.00 Build 0)  -->
<svg version="1.1" id="Layer_1" xmlns="http://www.w3.org/2000/svg" xmlns:xlink="http://www.w3.org/1999/xlink" x="0px" y="0px"
	 viewBox="0 0 58.8 57.6" enable-background="new 0 0 58.8 57.6" xml:space="preserve">
<g>
	<path fill="#333333" d="M48.1,27.4H10.7C4.8,27.4,0,32.2,0,38.2v8.6c0,5.9,4.8,10.8,10.7,10.8h37.3c5.9,0,10.7-4.8,10.7-10.8v-8.6
		C58.8,32.2,54,27.4,48.1,27.4z M18.6,34.1h-3.5v17.3h-3.4V34.1H8.3v-2.9h10.3V34.1z M28.4,51.4h-3v-1.6c-0.6,0.6-1.1,1.1-1.7,1.4
		c-0.6,0.3-1.2,0.5-1.7,0.5c-0.7,0-1.2-0.2-1.6-0.7c-0.3-0.4-0.5-1.1-0.5-2V36.5h3v11.4c0,0.4,0.1,0.6,0.2,0.8
		c0.1,0.2,0.3,0.2,0.6,0.2c0.2,0,0.5-0.1,0.8-0.3c0.3-0.2,0.6-0.5,0.9-0.8V36.5h3V51.4z M39.2,48.3c0,1.1-0.2,1.9-0.7,2.4
		c-0.5,0.6-1.1,0.8-2,0.8c-0.6,0-1.1-0.1-1.6-0.3c-0.5-0.2-0.9-0.5-1.3-1v1.1h-3V31.2h3v6.5c0.4-0.4,0.8-0.8,1.3-1
		c0.5-0.2,0.9-0.4,1.4-0.4c0.9,0,1.7,0.3,2.2,0.9c0.5,0.6,0.7,1.6,0.7,2.8V48.3z M49.5,44.3h-5.7v2.8c0,0.8,0.1,1.3,0.3,1.6
		c0.2,0.3,0.5,0.5,1,0.5c0.5,0,0.8-0.1,1-0.4c0.2-0.3,0.3-0.8,0.3-1.7v-0.7h3.1v0.8c0,1.5-0.4,2.7-1.1,3.5c-0.7,0.8-1.9,1.2-3.3,1.2
		c-1.3,0-2.4-0.4-3.1-1.2c-0.8-0.8-1.2-1.9-1.2-3.4v-6.7c0-1.3,0.4-2.3,1.3-3.2c0.8-0.8,1.9-1.2,3.3-1.2c1.4,0,2.4,0.4,3.1,1.1
		c0.7,0.8,1.1,1.8,1.1,3.2V44.3z"/>
	<path fill="#333333" d="M45.2,38.7c-0.5,0-0.8,0.1-1,0.4c-0.2,0.3-0.3,0.7-0.3,1.3V42h2.6v-1.5c0-0.6-0.1-1.1-0.3-1.3
		C46,38.9,45.6,38.7,45.2,38.7z"/>
	<path fill="#333333" d="M34.9,38.7c-0.2,0-0.4,0-0.6,0.1c-0.2,0.1-0.4,0.3-0.6,0.5v9.3c0.2,0.2,0.5,0.4,0.7,0.5
		c0.2,0.1,0.5,0.2,0.7,0.2c0.4,0,0.6-0.1,0.8-0.3c0.2-0.2,0.3-0.5,0.3-1v-7.7c0-0.5-0.1-0.9-0.3-1.1C35.6,38.8,35.3,38.7,34.9,38.7z
		"/>
	<polygon fill="#333333" points="15.6,22.2 19.4,22.2 19.4,13 23.8,0 20,0 17.6,8.9 17.4,8.9 14.9,0 11.1,0 15.6,13.4 	"/>
	<path fill="#333333" d="M28.9,22.7c1.5,0,2.7-0.4,3.6-1.2c0.9-0.8,1.3-1.9,1.3-3.3V9.7c0-1.2-0.4-2.3-1.3-3.1
		c-0.9-0.8-2-1.2-3.4-1.2c-1.5,0-2.7,0.4-3.6,1.1c-0.9,0.8-1.4,1.8-1.4,3v8.5c0,1.4,0.4,2.5,1.3,3.3C26.3,22.2,27.4,22.7,28.9,22.7z
		 M27.5,9.5c0-0.4,0.1-0.6,0.4-0.9c0.3-0.2,0.6-0.3,1-0.3c0.4,0,0.8,0.1,1.1,0.3c0.3,0.2,0.4,0.5,0.4,0.9v8.9c0,0.4-0.1,0.8-0.4,1
		c-0.3,0.3-0.6,0.4-1.1,0.4c-0.4,0-0.8-0.1-1-0.4c-0.2-0.2-0.4-0.6-0.4-1V9.5z"/>
	<path fill="#333333" d="M38.9,22.5c0.6,0,1.3-0.2,1.9-0.5c0.7-0.4,1.3-0.9,1.9-1.5v1.8h3.4V5.8h-3.4v12.5c-0.3,0.4-0.7,0.6-1,0.9
		c-0.4,0.2-0.7,0.3-0.9,0.3c-0.3,0-0.5-0.1-0.7-0.3c-0.1-0.2-0.2-0.5-0.2-0.8V5.8h-3.3v13.7c0,1,0.2,1.7,0.6,2.2
		C37.5,22.2,38.1,22.5,38.9,22.5z"/>
</g>
</svg>
