<?xml version="1.0" encoding="utf-8"?>
<!-- Generator: Adobe Illustrator 18.1.0, SVG Export Plug-In . SVG Version: 6.00 Build 0)  -->
<svg version="1.1" id="Layer_1" xmlns="http://www.w3.org/2000/svg" xmlns:xlink="http://www.w3.org/1999/xlink" x="0px" y="0px"
	 viewBox="0 0 70.5 57.6" enable-background="new 0 0 70.5 57.6" xml:space="preserve">
<g id="vadtmQ.tif_5_">
	<g>
		<path fill="#333333" d="M70.5,7c0,0.1,0,0.3,0,0.4c-0.1,0-0.1,0.1-0.2,0.1c-1.8,2.5-3.9,4.6-6.3,6.5c-0.2,0.2-0.4,0.5-0.4,0.8
			c-0.3,2.8-0.3,5.6-0.7,8.3c-1.7,9.5-6,17.7-13.2,24.3c-5.4,4.9-11.7,8.1-18.9,9.5c-1.3,0.3-2.7,0.5-4,0.7c-3.1,0-6.2,0-9.3,0
			c-0.7-0.1-1.4-0.2-2-0.3c-5-0.8-9.6-2.5-14-4.9C1,52,0.5,51.7,0,51.4c0-0.1,0-0.1,0-0.2c3.7,0,7.4,0.1,11-1c3.6-1.1,6.9-2.7,10-5
			c-6.6-0.8-11.1-4-13.4-10.1c0.8,0,1.5,0,2.1,0c0.6,0,1.3,0,1.9,0c0.6,0,1.3-0.1,1.9-0.2C5.2,32.4,2.1,24.3,2.7,20.3
			c1.9,1,3.9,1.6,6.1,1.7c-7.5-5.7-7-14.8-4.2-19.3c4,4.1,8.2,8.1,13.4,10.6c5.2,2.6,10.7,4.1,16.5,4.4c-0.1-0.4-0.1-0.8-0.1-1.1
			c-0.5-5.2,0.9-9.6,4.8-13.1c4.1-3.6,8.9-4.4,14.1-2.9c2,0.6,3.8,1.6,5.3,3.1c0.7,0.6,1.4,0.8,2.2,0.5c2.2-0.8,4.3-1.6,6.5-2.5
			c0.4-0.2,0.9-0.4,1.5-0.6c-1.2,3.3-3.2,5.7-5.7,7.7C65.7,8.7,68.1,7.8,70.5,7z"/>
	</g>
</g>
</svg>
