<?xml version="1.0" encoding="utf-8"?>
<!-- Generator: Adobe Illustrator 18.1.0, SVG Export Plug-In . SVG Version: 6.00 Build 0)  -->
<svg version="1.1" id="Layer_1" xmlns="http://www.w3.org/2000/svg" xmlns:xlink="http://www.w3.org/1999/xlink" x="0px" y="0px"
	 viewBox="0 0 28.1 57.6" enable-background="new 0 0 28.1 57.6" xml:space="preserve">
<g id="i5La53.tif_4_">
	<g>
		<path fill="#333333" d="M0,30.6c0-3.3,0-6.6,0-9.8c2.4,0,4.7,0,7.1,0c0-0.1,0-0.1,0-0.2c0-2.6,0-5.3,0-7.9c0-0.5,0-1,0.1-1.5
			c0.1-1,0.3-2,0.6-3c0.7-2,1.8-3.7,3.4-5c1.4-1.2,3-2,4.7-2.5c1.4-0.4,2.8-0.6,4.2-0.7C21.8,0,23.4,0,25,0.1c0.7,0,1.5,0.1,2.2,0.2
			c0.3,0,0.5,0.1,0.8,0.1c-0.1,3.1-0.2,6.1-0.2,9.2c-0.1,0-0.1,0-0.1,0c-2.2,0-4.3,0-6.5,0c-0.5,0-1,0.1-1.5,0.2
			c-0.9,0.3-1.6,0.8-1.9,1.7c-0.2,0.6-0.3,1.2-0.3,1.8c0,2.5,0,4.9,0,7.4c0,0,0,0.1,0,0.1c0,0,0.1,0,0.1,0c3.5,0,7,0,10.4,0
			c0,0.1,0,0.2,0,0.4c0,0.1,0,0.1,0,0.2c0,0.4,0,0.7,0,1.1c0,0.9-0.1,1.8-0.1,2.6c0,0.6,0,1.1-0.1,1.7c-0.1,1.1-0.1,2.2-0.2,3.3
			c0,0.2,0,0.4,0,0.6c-3.4,0-6.7,0-10.1,0c0,0.1,0,0.1,0,0.1c0,8.9,0,17.8,0,26.7c0,0,0,0.1,0,0.1c-3.5,0-6.9,0-10.4,0l0,0
			c0-8.9,0-17.9,0-26.8c0,0,0-0.1,0-0.1c0,0-0.1,0-0.1,0c-2.3,0-4.6,0-6.9,0C0.1,30.6,0,30.6,0,30.6z"/>
	</g>
</g>
</svg>
