<?xml version="1.0" encoding="utf-8"?>
<!-- Generator: Adobe Illustrator 18.1.0, SVG Export Plug-In . SVG Version: 6.00 Build 0)  -->
<svg version="1.1" id="Layer_1" xmlns="http://www.w3.org/2000/svg" xmlns:xlink="http://www.w3.org/1999/xlink" x="0px" y="0px"
	 viewBox="0 0 52.9 52.9" enable-background="new 0 0 52.9 52.9" xml:space="preserve">
<g>
	<path fill="#333333" d="M52.9,41.8c0,0.7-0.1,1.6-0.4,2.6c-0.3,1.1-0.5,1.9-0.8,2.6c-0.5,1.3-2.1,2.6-4.6,4c-2.4,1.3-4.7,1.9-7,1.9
		c-0.7,0-1.3,0-2-0.1c-0.6-0.1-1.4-0.2-2.2-0.5s-1.4-0.4-1.8-0.5c-0.4-0.1-1.1-0.4-2.1-0.8c-1-0.4-1.6-0.6-1.8-0.7
		c-2.5-0.9-4.6-1.9-6.6-3.1c-3.2-2-6.5-4.7-9.9-8.1s-6.1-6.7-8.1-9.9c-1.2-1.9-2.2-4.1-3.1-6.6c-0.1-0.2-0.3-0.8-0.7-1.8
		c-0.4-1-0.6-1.7-0.8-2.1c-0.1-0.4-0.3-1-0.5-1.8s-0.4-1.5-0.5-2.2C0,14.1,0,13.4,0,12.7c0-2.3,0.6-4.6,1.9-7c1.4-2.5,2.7-4.1,4-4.6
		c0.6-0.3,1.5-0.5,2.6-0.8c1.1-0.3,2-0.4,2.6-0.4c0.4,0,0.6,0,0.8,0.1c0.5,0.2,1.1,1.1,2,2.9c0.3,0.5,0.7,1.2,1.1,2
		c0.5,0.9,0.9,1.7,1.3,2.4s0.8,1.4,1.2,2c0.1,0.1,0.3,0.4,0.7,0.9c0.4,0.5,0.6,1,0.8,1.3c0.2,0.4,0.3,0.7,0.3,1.1
		c0,0.5-0.4,1.1-1.1,1.9c-0.7,0.8-1.5,1.4-2.3,2.1c-0.8,0.6-1.6,1.3-2.3,2s-1.1,1.3-1.1,1.7c0,0.2,0.1,0.5,0.2,0.8
		c0.1,0.3,0.2,0.6,0.3,0.8c0.1,0.2,0.3,0.5,0.5,0.9c0.3,0.4,0.4,0.7,0.4,0.7c1.9,3.4,4.1,6.4,6.5,8.8c2.5,2.5,5.4,4.6,8.8,6.5
		c0,0,0.3,0.2,0.7,0.4c0.4,0.3,0.7,0.4,0.9,0.5c0.2,0.1,0.4,0.2,0.8,0.3c0.3,0.1,0.6,0.2,0.8,0.2c0.5,0,1-0.4,1.7-1.1s1.4-1.5,2-2.3
		c0.6-0.8,1.3-1.6,2.1-2.3c0.8-0.7,1.4-1.1,1.9-1.1c0.4,0,0.7,0.1,1.1,0.3c0.4,0.2,0.8,0.4,1.3,0.8c0.5,0.4,0.8,0.6,0.9,0.7
		c0.6,0.4,1.3,0.8,2,1.2s1.5,0.8,2.4,1.3c0.9,0.5,1.6,0.9,2,1.1c1.8,0.9,2.7,1.5,2.9,2C52.9,41.2,52.9,41.4,52.9,41.8z"/>
</g>
</svg>
