<?xml version="1.0" encoding="utf-8"?>
<!-- Generator: Adobe Illustrator 18.1.0, SVG Export Plug-In . SVG Version: 6.00 Build 0)  -->
<svg version="1.1" id="Layer_1" xmlns="http://www.w3.org/2000/svg" xmlns:xlink="http://www.w3.org/1999/xlink" x="0px" y="0px"
	 viewBox="0 0 61.8 59" enable-background="new 0 0 61.8 59" xml:space="preserve">
<g>
	<path fill="#333333" d="M14.9,6.9c0,2-0.7,3.6-2,4.9c-1.4,1.3-3.2,2-5.5,2H7.3c-2.2,0-4-0.7-5.3-2c-1.3-1.3-2-2.9-2-4.9
		c0-2,0.7-3.6,2.1-4.9c1.4-1.3,3.2-2,5.4-2c2.2,0,4,0.7,5.3,2C14.2,3.3,14.9,4.9,14.9,6.9z M14,19.2V59H0.8V19.2H14z M61.8,36.2V59
		H48.5V37.7c0-2.8-0.5-5-1.6-6.6c-1.1-1.6-2.8-2.4-5.1-2.4c-1.7,0-3.1,0.5-4.2,1.4c-1.1,0.9-2,2.1-2.6,3.4c-0.3,0.8-0.4,1.9-0.4,3.3
		V59H21.4c0.1-10.7,0.1-19.4,0.1-26c0-6.7,0-10.6,0-11.9l0-1.9h13.2V25h-0.1c0.5-0.9,1.1-1.6,1.6-2.3c0.6-0.6,1.3-1.3,2.3-2.1
		c1-0.8,2.1-1.3,3.5-1.7s2.9-0.6,4.6-0.6c4.6,0,8.3,1.5,11.1,4.6S61.8,30.3,61.8,36.2z"/>
</g>
</svg>
