<?xml version="1.0" encoding="utf-8"?>
<!-- Generator: Adobe Illustrator 18.1.0, SVG Export Plug-In . SVG Version: 6.00 Build 0)  -->
<svg version="1.1" id="Layer_1" xmlns="http://www.w3.org/2000/svg" xmlns:xlink="http://www.w3.org/1999/xlink" x="0px" y="0px"
	 viewBox="0 0 57.6 57.6" enable-background="new 0 0 57.6 57.6" xml:space="preserve">
<path fill="#333333" d="M46.4,0H11.1C5,0,0,5,0,11.1v11.7v23.6c0,6.1,5,11.1,11.1,11.1h35.3c6.1,0,11.1-5,11.1-11.1V22.9V11.1
	C57.6,5,52.6,0,46.4,0z M49.6,6.6l1.3,0v1.3v8.5l-9.7,0l0-9.8L49.6,6.6z M20.6,22.9c1.8-2.6,4.8-4.2,8.2-4.2s6.4,1.7,8.2,4.2
	c1.2,1.7,1.9,3.7,1.9,5.9c0,5.6-4.5,10.1-10.1,10.1c-5.6,0-10.1-4.5-10.1-10.1C18.6,26.6,19.4,24.5,20.6,22.9z M52,46.4
	c0,3-2.5,5.5-5.5,5.5H11.1c-3,0-5.5-2.5-5.5-5.5V22.9h8.6c-0.7,1.8-1.2,3.8-1.2,5.9c0,8.7,7.1,15.7,15.7,15.7
	c8.7,0,15.7-7.1,15.7-15.7c0-2.1-0.4-4.1-1.2-5.9H52V46.4z"/>
</svg>
