<?xml version="1.0" encoding="utf-8"?>
<!-- Generator: Adobe Illustrator 18.1.0, SVG Export Plug-In . SVG Version: 6.00 Build 0)  -->
<svg version="1.1" id="Layer_1" xmlns="http://www.w3.org/2000/svg" xmlns:xlink="http://www.w3.org/1999/xlink" x="0px" y="0px"
	 viewBox="0 0 23.1 21.3" enable-background="new 0 0 23.1 21.3" xml:space="preserve">
<g>
	<g>
		<path fill="#010101" d="M23.1,11.6v5.8c0,0.1,0,0.2-0.1,0.3s-0.2,0.1-0.3,0.1h-3.1V20c0,0.4-0.1,0.7-0.4,0.9
			c-0.3,0.3-0.6,0.4-0.9,0.4H4.9c-0.4,0-0.7-0.1-0.9-0.4S3.6,20.4,3.6,20v-2.2H0.4c-0.1,0-0.2,0-0.3-0.1S0,17.5,0,17.3v-5.8
			c0-0.7,0.3-1.4,0.8-1.9s1.2-0.8,1.9-0.8h0.9V1.3c0-0.4,0.1-0.7,0.4-0.9C4.2,0.1,4.5,0,4.9,0h9.3c0.4,0,0.8,0.1,1.2,0.3
			c0.4,0.2,0.8,0.4,1.1,0.7l2.1,2.1c0.3,0.3,0.5,0.6,0.7,1.1c0.2,0.4,0.3,0.9,0.3,1.2v3.6h0.9c0.7,0,1.4,0.3,1.9,0.8
			S23.1,10.8,23.1,11.6z M5.3,10.7h12.5V5.3h-2.2c-0.4,0-0.7-0.1-0.9-0.4c-0.3-0.3-0.4-0.6-0.4-0.9V1.8H5.3V10.7z M5.3,19.6h12.5V16
			H5.3V19.6z M21.1,12.2c0.2-0.2,0.3-0.4,0.3-0.6c0-0.2-0.1-0.4-0.3-0.6c-0.2-0.2-0.4-0.3-0.6-0.3c-0.2,0-0.4,0.1-0.6,0.3
			c-0.2,0.2-0.3,0.4-0.3,0.6c0,0.2,0.1,0.4,0.3,0.6c0.2,0.2,0.4,0.3,0.6,0.3C20.7,12.5,20.9,12.4,21.1,12.2z"/>
	</g>
</g>
</svg>
