<?xml version="1.0" encoding="utf-8"?>
<!-- Generator: Adobe Illustrator 18.1.0, SVG Export Plug-In . SVG Version: 6.00 Build 0)  -->
<svg version="1.1" id="Layer_1" xmlns="http://www.w3.org/2000/svg" xmlns:xlink="http://www.w3.org/1999/xlink" x="0px" y="0px"
	 viewBox="0 0 21.9 17.8" enable-background="new 0 0 21.9 17.8" xml:space="preserve">
<g>
	<g>
		<path fill="#010101" d="M21.9,2.1c-0.6,0.9-1.4,1.7-2.3,2.3c0,0.1,0,0.3,0,0.6c0,1.2-0.2,2.4-0.5,3.6c-0.4,1.2-0.9,2.4-1.6,3.5
			C16.8,13.2,16,14.2,15,15c-1,0.8-2.2,1.5-3.6,2c-1.4,0.5-2.9,0.8-4.5,0.8c-2.5,0-4.8-0.7-6.9-2c0.3,0,0.7,0.1,1.1,0.1
			c2.1,0,3.9-0.6,5.6-1.9c-1,0-1.8-0.3-2.6-0.9c-0.8-0.6-1.3-1.3-1.6-2.2c0.3,0,0.6,0.1,0.8,0.1c0.4,0,0.8-0.1,1.2-0.2
			c-1-0.2-1.9-0.7-2.6-1.5c-0.7-0.8-1-1.8-1-2.9V6.3c0.6,0.4,1.3,0.5,2,0.6C2.3,6.4,1.8,5.9,1.5,5.2C1.1,4.6,0.9,3.9,0.9,3.1
			c0-0.8,0.2-1.6,0.6-2.3C2.7,2.2,4,3.3,5.6,4.1C7.2,5,9,5.4,10.8,5.5c-0.1-0.4-0.1-0.7-0.1-1c0-1.2,0.4-2.3,1.3-3.2
			C12.9,0.4,13.9,0,15.2,0c1.3,0,2.4,0.5,3.3,1.4c1-0.2,2-0.6,2.8-1.1c-0.3,1.1-1,1.9-2,2.5C20.2,2.7,21,2.5,21.9,2.1z"/>
	</g>
</g>
</svg>
