<?xml version="1.0" encoding="utf-8"?>
<!-- Generator: Adobe Illustrator 18.1.0, SVG Export Plug-In . SVG Version: 6.00 Build 0)  -->
<svg version="1.1" id="Layer_1" xmlns="http://www.w3.org/2000/svg" xmlns:xlink="http://www.w3.org/1999/xlink" x="0px" y="0px"
	 viewBox="0 0 24.9 19.6" enable-background="new 0 0 24.9 19.6" xml:space="preserve">
<g>
	<g>
		<path fill="#010101" d="M24.9,2.2c0,0.7-0.2,1.4-0.7,2.1c-0.5,0.7-1,1.2-1.7,1.7C19,8.5,16.9,10,16,10.5c-0.1,0.1-0.3,0.2-0.6,0.4
			s-0.6,0.4-0.8,0.5c-0.2,0.1-0.4,0.3-0.7,0.5c-0.3,0.2-0.6,0.3-0.8,0.4c-0.3,0.1-0.5,0.1-0.7,0.1h0h0c-0.2,0-0.4,0-0.7-0.1
			c-0.3-0.1-0.5-0.2-0.8-0.4c-0.3-0.2-0.5-0.3-0.7-0.5C10,11.4,9.8,11.2,9.5,11S9,10.6,8.9,10.5C8,10,6.8,9.1,5.2,8S2.7,6.3,2.4,6
			C1.8,5.6,1.3,5.1,0.8,4.4C0.3,3.7,0,3.1,0,2.5c0-0.7,0.2-1.3,0.6-1.8C1,0.2,1.5,0,2.2,0h20.5c0.6,0,1.1,0.2,1.6,0.7
			C24.7,1.1,24.9,1.6,24.9,2.2z M24.9,6.3v11c0,0.6-0.2,1.1-0.7,1.6c-0.4,0.4-1,0.7-1.6,0.7H2.2c-0.6,0-1.1-0.2-1.6-0.7
			C0.2,18.5,0,18,0,17.3v-11c0.4,0.5,0.9,0.9,1.4,1.2c3.4,2.3,5.7,3.9,6.9,4.8c0.5,0.4,1,0.7,1.3,0.9c0.3,0.2,0.8,0.4,1.3,0.7
			c0.5,0.2,1.1,0.3,1.5,0.3h0h0c0.5,0,1-0.1,1.5-0.3c0.5-0.2,1-0.5,1.3-0.7c0.3-0.2,0.8-0.5,1.3-0.9c1.6-1.1,3.9-2.7,6.9-4.8
			C24,7.2,24.5,6.8,24.9,6.3z"/>
	</g>
</g>
</svg>
