<svg id="Layer_1" data-name="Layer 1" xmlns="http://www.w3.org/2000/svg" viewBox="0 0 84.27 57.8"><defs><style>.cls-1{fill:#1d1d1b;}</style></defs><title>collaboration</title><path class="cls-1" d="M406.86,272.14q0.65,0,1.31,0a8.72,8.72,0,0,0,12.7,4.46,24,24,0,0,1,4,3.62c-0.07.16-.13,0.32-0.19,0.48A8.73,8.73,0,0,0,430,291.89l0.62,0.19a24,24,0,0,1,.32,5.75,8.72,8.72,0,0,0-4.45,12.46,24,24,0,0,1-3.76,4.13c-0.22-.1-0.45-0.19-0.68-0.28a8.72,8.72,0,0,0-11.16,5.28c-0.08.21-.14,0.43-0.2,0.64a23.93,23.93,0,0,1-3.82.31q-0.85,0-1.71-.06a8.72,8.72,0,0,0-12.44-4.52,24,24,0,0,1-3.79-3.41c0.1-.23.2-0.46,0.28-0.69a8.73,8.73,0,0,0-5.28-11.16,8.84,8.84,0,0,0-.85-0.26,24,24,0,0,1-.28-5.71,8.72,8.72,0,0,0,4.38-12.26,24,24,0,0,1,4.08-4.45l0.24,0.09a8.72,8.72,0,0,0,11.16-5.28l0.06-.17a24.12,24.12,0,0,1,4.17-.37m0,40.84a16.72,16.72,0,1,0-5.62-1,16.71,16.71,0,0,0,5.62,1m0-44.49h0a27.86,27.86,0,0,0-4.81.42l-2.15.38-0.69,2.07,0,0.11h0a5.07,5.07,0,0,1-6.49,3.07l-0.06,0-0.08,0-2-.79-1.66,1.41a27.67,27.67,0,0,0-4.7,5.12l-1.32,1.86,1.09,2a5.07,5.07,0,0,1-2.55,7.13l-2.11.86-0.16,2.27a27.7,27.7,0,0,0,.32,6.58l0.4,2.36,2.32,0.57,0.5,0.15a5.08,5.08,0,0,1,3.07,6.49c0,0.12-.1.25-0.17,0.41l-1,2.18,1.6,1.78a27.7,27.7,0,0,0,4.37,3.93l1.89,1.37,2-1.14a5.07,5.07,0,0,1,7.23,2.63l0.83,2.19,2.33,0.17c0.65,0,1.31.07,2,.07a27.67,27.67,0,0,0,4.4-.35l2.32-.38,0.62-2.27c0-.15.08-0.27,0.12-0.38a5.07,5.07,0,0,1,6.49-3.07l0.4,0.16,2.14,1,1.77-1.54a27.69,27.69,0,0,0,4.33-4.76l1.36-1.9-1.16-2a5.07,5.07,0,0,1,2.59-7.25l2.18-.84,0.15-2.33a27.69,27.69,0,0,0-.36-6.63l-0.4-2.27-2.22-.61-0.36-.11a5.08,5.08,0,0,1-3.07-6.49l0.11-.28,0.9-2.12-1.53-1.73a27.7,27.7,0,0,0-4.63-4.17l-2-1.4L419,273.51a5.07,5.07,0,0,1-7.38-2.59l-0.83-2.25-2.4-.13c-0.5,0-1,0-1.51,0h0Zm0,40.84a13.06,13.06,0,1,1,12.29-8.67,13,13,0,0,1-12.29,8.67h0Z" transform="translate(-379.06 -268.49)"/><path class="cls-1" d="M451.75,299a12.82,12.82,0,0,1,2.69,1c0,0.09,0,.18,0,0.28a4.67,4.67,0,0,0,4.66,4.58h0.09l0.35,0a12.83,12.83,0,0,1,1.25,2.82,4.66,4.66,0,0,0,.13,7.07,12.82,12.82,0,0,1-1.1,2.78h-0.39a4.67,4.67,0,0,0-4.58,4.75c0,0.12,0,.24,0,0.36a12.82,12.82,0,0,1-2.72,1.17,4.65,4.65,0,0,0-3.5-1.58h-0.09a4.65,4.65,0,0,0-3.49,1.67,12.82,12.82,0,0,1-2.54-1c0-.13,0-0.27,0-0.4a4.67,4.67,0,0,0-4.66-4.58H437.8l-0.47,0a12.84,12.84,0,0,1-1.22-2.8,4.66,4.66,0,0,0-.13-7,12.82,12.82,0,0,1,1.2-3h0.14a4.67,4.67,0,0,0,4.58-4.75s0-.07,0-0.1a12.83,12.83,0,0,1,2.68-1.2,4.66,4.66,0,0,0,3.52,1.61h0.09a4.66,4.66,0,0,0,3.58-1.78m-3.29,18.31h0.11a5.84,5.84,0,0,0-.11-11.68h-0.11a5.84,5.84,0,0,0,.11,11.68m2.48-20.73-0.87,1.1a2.53,2.53,0,0,1-1.95,1h0a2.53,2.53,0,0,1-1.91-.87l-0.92-1.06-1.33.42a15,15,0,0,0-3.12,1.4l-1.09.65,0.05,1.27v0.06a2.53,2.53,0,0,1-2.49,2.57h-1.35l-0.61,1.11a15,15,0,0,0-1.39,3.49l-0.33,1.29,1,0.87a2.53,2.53,0,0,1,.07,3.78l-1,.9,0.38,1.27a15,15,0,0,0,1.42,3.26l0.71,1.2,1.39-.17,0.26,0h0.05a2.55,2.55,0,0,1,2.53,2.49c0,0.07,0,.15,0,0.22l-0.09,1.39,1.24,0.64a15,15,0,0,0,3,1.15l1.32,0.36,0.87-1a2.53,2.53,0,0,1,1.9-.91h0a2.54,2.54,0,0,1,1.9.86l0.9,1,1.31-.39a15,15,0,0,0,3.17-1.36l1.19-.68L457,322.41c0-.06,0-0.13,0-0.2a2.53,2.53,0,0,1,2.49-2.58h0.21l1.37,0.09,0.65-1.21a15,15,0,0,0,1.28-3.24l0.35-1.32-1-.87a2.53,2.53,0,0,1-.07-3.84l1-.91-0.4-1.3a15,15,0,0,0-1.45-3.28l-0.69-1.16-1.34.12H459.1a2.55,2.55,0,0,1-2.53-2.49c0-.05,0-0.1,0-0.15l0.05-1.34-1.19-.63a15,15,0,0,0-3.14-1.22l-1.35-.36h0Zm-2.48,18.6a3.71,3.71,0,0,1-.07-7.42h0.07a3.73,3.73,0,0,1,3.71,3.64,3.71,3.71,0,0,1-3.64,3.78h-0.07Z" transform="translate(-379.06 -268.49)"/></svg>