<svg id="Layer_1" data-name="Layer 1" xmlns="http://www.w3.org/2000/svg" viewBox="0 0 67.73 67.37"><title>culture</title><path d="M454.87,295.63h0a17.37,17.37,0,0,0-6.91-12.7,11.25,11.25,0,0,0,.48-2.94,10.61,10.61,0,0,0-3.75-8.57,8.16,8.16,0,0,0-2.17-5.49,6.94,6.94,0,0,0-4.88-2.22h-0.18c-3.93,0-7.2,3.41-7.33,7.68q0,0.22,0,.45a16.17,16.17,0,0,0-2.54-.25,10.89,10.89,0,0,0-5.83-6c-6.15-2.67-13.9.5-17.27,7.07a14.54,14.54,0,0,0-1.18,3.13,15.16,15.16,0,0,0-3-.55,12.09,12.09,0,0,0-8.78,3,12.39,12.39,0,0,0-4.29,8.49,10.84,10.84,0,0,0,3.12,8.26c-1.88,3.38-1.71,7.16.53,9.74,3.28,3.77,10,3.85,15,.18a13.17,13.17,0,0,0,3.4-3.62,18.14,18.14,0,0,0,12.94.27,17,17,0,0,0,16.17,12.14l1,0A16.33,16.33,0,0,0,450.69,308,16.9,16.9,0,0,0,454.87,295.63Zm-15.74,14.88A13.93,13.93,0,0,1,424.77,299L424.38,297l-1.86,1a14.72,14.72,0,0,1-13.21-.13l-1.48-.8-0.68,1.54a9.61,9.61,0,0,1-3.14,3.79c-3.66,2.7-8.63,2.83-10.83.29-1.56-1.8-1.41-4.57.39-7.06l0.84-1.17-1.11-.92a7.94,7.94,0,0,1-3-6.62,9.28,9.28,0,0,1,3.22-6.35A9,9,0,0,1,400,278.3a11.81,11.81,0,0,1,3.85,1l1.95,0.86L406,278a11.13,11.13,0,0,1,1.19-4c2.64-5.15,8.6-7.69,13.28-5.65a7.92,7.92,0,0,1,4.48,5.18l0.34,1.19,1.24-.08a13.15,13.15,0,0,1,5,.69l3,1-1.05-3a5.29,5.29,0,0,1-.29-1.93c0.08-2.64,2-4.74,4.34-4.68a3.87,3.87,0,0,1,2.71,1.25,5.07,5.07,0,0,1,1.32,3.63c0,0.1,0,.2,0,0.29l-0.09,1,0.78,0.51a7.38,7.38,0,0,1,3.1,6.42,8.08,8.08,0,0,1-.67,3l-0.53,1.21,1.12,0.71a14.25,14.25,0,0,1,6.52,11A13.82,13.82,0,0,1,448.37,306,13.25,13.25,0,0,1,439.13,310.51Z" transform="translate(-387.18 -263.71)"/><path d="M443.67,314.66a5.34,5.34,0,1,0-.3,10.68h0.15A5.34,5.34,0,0,0,443.67,314.66Zm1.63,7.22a2.59,2.59,0,1,1-1.78-4.47h0.07A2.59,2.59,0,0,1,445.3,321.88Z" transform="translate(-387.18 -263.71)"/><path d="M439.88,325.79a2.67,2.67,0,1,0-.15,5.28h0.1A2.66,2.66,0,1,0,439.88,325.79Zm-0.1,3.56a1,1,0,1,1,1.37-.88A1.21,1.21,0,0,1,439.78,329.36Z" transform="translate(-387.18 -263.71)"/></svg>