<svg id="Layer_1" data-name="Layer 1" xmlns="http://www.w3.org/2000/svg" viewBox="0 0 83.05 72.12"><title>talent</title><path d="M421.65,261.33l-41.51,22.41,22.68,12.46c0.7,4.3,2.6,7.79,4.46,11.19s3.65,6.68,4.16,10.68l0.36,2.79,2.55-1.19a18.16,18.16,0,0,1,7.65-1.58,18.57,18.57,0,0,1,7.11,1.35l2.36,1,0.46-2.52c0.59-3.25,2.2-6.41,3.91-9.75,1.94-3.8,3.94-7.71,4.65-12.14l7.87-4.25v15.55h0l2.7-2.07,0.21-.16,2.53,2.15V288.8l9.34-5Zm19,29.9c-0.8-9.06-9-16.21-19-16.21s-18.33,7.23-19.06,16.36l-13.86-7.61L421.65,266l32.89,17.76-6,3.25h-0.15v0.08ZM415,315a39.65,39.65,0,0,0-4.16-9.58,45.82,45.82,0,0,1-3.12-6.5,19.85,19.85,0,0,1-.78-2.77,17.51,17.51,0,0,1-.32-2.52c0-.31,0-0.62,0-0.94,0-7.47,6.73-13.55,15-13.55s15,6.08,15,13.55c0,0.25,0,.49,0,0.74a17.36,17.36,0,0,1-.24,2.19,20.29,20.29,0,0,1-.49,2.11,48.5,48.5,0,0,1-3.72,8.56,51,51,0,0,0-3.74,8.57A23.63,23.63,0,0,0,422,314,23.36,23.36,0,0,0,415,315Z" transform="translate(-380.14 -261.33)"/><path d="M430,322.6a21.46,21.46,0,0,0-16.58,0,1.37,1.37,0,1,0,1.06,2.52,18.49,18.49,0,0,1,4.58-1.26,18.8,18.8,0,0,1,5.3,0,18.48,18.48,0,0,1,4.57,1.26A1.37,1.37,0,0,0,430,322.6Z" transform="translate(-380.14 -261.33)"/><path d="M430,327.26a21.45,21.45,0,0,0-16.58,0,1.37,1.37,0,1,0,1.06,2.52,18.48,18.48,0,0,1,4.57-1.26,18.8,18.8,0,0,1,5.31,0,18.47,18.47,0,0,1,4.57,1.26A1.37,1.37,0,0,0,430,327.26Z" transform="translate(-380.14 -261.33)"/><ellipse cx="41.53" cy="70.3" rx="3.17" ry="1.82"/></svg>